<svg width="44" height="44" fill="none" xmlns="http://www.w3.org/2000/svg"><g id="Vector" fill="#fff"><path d="M24.367 6.415c0-1.057-.828-1.914-1.862-2.136A12.545 12.545 0 0115.491.032a.069.069 0 00-.08-.019L1.443 6A2 2 0 00.258 8.167l.745 4.467a2 2 0 002.365 1.632l5.065-1.013a.788.788 0 01.944.774V32.54a2 2 0 002 2h10.99a2 2 0 002-2V6.415zM2.192 8.372a.789.789 0 011.503-.44l.258.602a.275.275 0 01-.207.379l-.647.108a.789.789 0 01-.907-.65zm1.48 3.922a.789.789 0 01-.934-.644l-.002-.01a.778.778 0 01.64-.896l.746-.15a.013.013 0 01.015.01.013.013 0 00.015.01.013.013 0 01.015.011l.125.753a.776.776 0 01-.609.914l-.012.002zm1.507-4.998a.789.789 0 01.414-1.036l.033-.014a.789.789 0 11.622 1.45l-.034.014a.789.789 0 01-1.035-.414zm1.359 4.425a.711.711 0 01-.838-.558l-.03-.152a.711.711 0 111.395-.28l.03.153a.711.711 0 01-.557.837zm2.055-6.747a.79.79 0 01.622 1.45l-.033.015a.79.79 0 11-.622-1.45l.033-.015zm.735 6.19a.711.711 0 01-.837-.559l-.03-.152a.711.711 0 011.394-.279l.03.152a.711.711 0 01-.557.838zm3.5 20.723a.789.789 0 11-1.578 0 .789.789 0 011.578 0zm0-3.154a.789.789 0 11-1.577-.001.789.789 0 011.577.001zm0-3.152a.789.789 0 11-1.577-.002.789.789 0 011.577.002zm0-3.153a.789.789 0 11-1.577-.001.789.789 0 011.577 0zm0-3.153a.789.789 0 11-1.577-.001.789.789 0 011.577.001zm0-3.153a.789.789 0 11-1.577 0 .789.789 0 011.577 0zm0-3.152a.789.789 0 11-1.577-.001.789.789 0 011.577 0zm0-2.888a.524.524 0 01-.855.405l-.578-.474a.524.524 0 01.23-.918l.26-.052a.789.789 0 01.943.773v.266zm-.68-4.915a.789.789 0 01-.62-1.45l.033-.015a.789.789 0 01.621 1.45l-.033.015zM14.08 3.48a.79.79 0 011.261-.89.78.78 0 01.083 1.07l-.363.433a.455.455 0 01-.767-.113l-.214-.5zm1.983 28.406a.789.789 0 01-.789.789h-.04a.789.789 0 010-1.578h.04c.436 0 .789.353.789.789zm.436-26.41a.644.644 0 01-.17-.915l.18-.257a.62.62 0 01.842-.156.619.619 0 01.208.83l-.159.271a.643.643 0 01-.901.227zm2.799 26.41a.789.789 0 01-.79.789h-.039a.789.789 0 110-1.578h.04c.436 0 .789.353.789.789zm.398-25.538a.643.643 0 01-.852.372.644.644 0 01-.319-.874l.136-.283a.62.62 0 01.804-.294.62.62 0 01.343.785l-.112.294zm2.797 25.538a.789.789 0 11-1.577 0 .789.789 0 011.577 0zm0-25.058a.79.79 0 01-.79.789h-.649a.3.3 0 01-.287-.382l.185-.644a.78.78 0 01.93-.532.789.789 0 01.611.769z"/><path d="M43.742 17.634a2 2 0 00-1.185-2.167L28.589 9.481a.069.069 0 00-.08.019 12.584 12.584 0 01-1.719 1.698c-.512.417-.846 1.026-.846 1.687V35.33a.79.79 0 01-.788.789h-3.523a2 2 0 00-2 2v3.89a2 2 0 002 2h10.99a2 2 0 002-2V23.493a.788.788 0 01.944-.773l5.066 1.013a2 2 0 002.364-1.633l.745-4.467zm-20.657 23.72a.789.789 0 11-1.578 0 .789.789 0 011.578 0zm3.235 0a.789.789 0 01-.79.79h-.039a.789.789 0 110-1.578h.04a.79.79 0 01.789.788zm3.234 0a.789.789 0 01-.789.79h-.04a.789.789 0 010-1.578h.04a.79.79 0 01.79.788zm.152-27.905a.455.455 0 01-.767.113l-.362-.434a.78.78 0 01.082-1.069.789.789 0 011.261.89l-.214.5zm3.044 27.905a.79.79 0 11-1.579 0 .79.79 0 011.579 0zm0-3.153a.789.789 0 11-1.578-.001.789.789 0 011.578 0zm0-3.153a.789.789 0 11-1.578 0 .789.789 0 011.578 0zm0-3.153a.789.789 0 11-1.578 0 .789.789 0 011.578 0zm0-3.152a.789.789 0 11-1.578-.001.789.789 0 011.578 0zm0-3.153a.789.789 0 11-1.578-.001.789.789 0 011.578.001zm0-3.153a.789.789 0 11-1.578 0 .789.789 0 011.578 0zm.036-3.258a.524.524 0 01-.181.302l-.578.473a.524.524 0 01-.855-.405v-.265a.79.79 0 01.943-.774l.26.052a.524.524 0 01.411.617zm.101-4.959a.79.79 0 01-1.036.415l-.033-.015a.79.79 0 01.622-1.45l.033.014a.79.79 0 01.414 1.036zm2.622 5.853a.711.711 0 11-1.395-.279l.03-.152a.711.711 0 111.396.279l-.03.152zm.345-4.581a.79.79 0 01-1.036.414l-.033-.014a.79.79 0 01.621-1.45l.033.014a.79.79 0 01.415 1.036zM38.3 20.63a.711.711 0 11-1.396-.28l.03-.151a.711.711 0 111.396.279l-.03.152zm.521-3.868a.789.789 0 01-1.036.415l-.033-.014a.789.789 0 11.621-1.45l.034.014c.4.171.586.635.414 1.035zm2.44 4.355a.789.789 0 01-.932.644l-.012-.002a.777.777 0 01-.61-.914l.126-.753a.013.013 0 01.015-.01.013.013 0 00.014-.01.013.013 0 01.015-.01l.747.15c.424.07.71.47.64.894l-.002.011zm.547-3.278l-.06.358a.426.426 0 01-.49.35l-1.004-.167a.275.275 0 01-.207-.38l.258-.602a.789.789 0 011.503.44z"/></g></svg>