<svg width="44" height="44" fill="none" xmlns="http://www.w3.org/2000/svg"><g id="Vector" fill="#fff"><path d="M38.5 27.5h-3.667v1.833H38.5V27.5z"/><path d="M40.333 11H27.5c1.01 0 1.833-.823 1.833-1.833v-5.5c0-1.01-.822-1.834-1.833-1.834V.917a.916.916 0 10-1.833 0v.916a1.836 1.836 0 00-1.834 1.834v5.5c0 1.01.823 1.833 1.834 1.833h-5.5C21.177 11 22 10.177 22 9.167v-5.5c0-1.01-.823-1.834-1.833-1.834V.917a.916.916 0 10-1.834 0v.916c-1.01 0-1.833.823-1.833 1.834v5.5c0 1.01.823 1.833 1.833 1.833H3.667A3.67 3.67 0 000 14.667v8.787c0 1.08.42 2.096 1.185 2.86A4.02 4.02 0 004.046 27.5H5.5v.917c0 .506.41.916.917.916v2.75a.916.916 0 101.833 0v-2.75c.507 0 .917-.41.917-.916V27.5h1.454a4.02 4.02 0 002.86-1.185 4.02 4.02 0 001.186-2.861v-3.287h14.667v14.666H.916A.916.916 0 000 35.75v4.583A3.67 3.67 0 003.667 44h36.666A3.67 3.67 0 0044 40.333V14.667A3.67 3.67 0 0040.333 11zM19.25 16.5h-1.833a.916.916 0 110-1.833h1.833a.916.916 0 110 1.833zm5.5 0h-1.833a.916.916 0 110-1.833h1.833a.916.916 0 110 1.833zm15.583 19.25c0 .507-.41.917-.916.917h-5.5A.916.916 0 0133 35.75v-9.167c0-.506.41-.916.917-.916h5.5c.506 0 .916.41.916.916v9.167zM36.667 22A3.67 3.67 0 0133 18.333a3.67 3.67 0 013.667-3.666 3.67 3.67 0 013.666 3.666A3.67 3.67 0 0136.667 22z"/></g></svg>