<svg width="44" height="50" fill="none" xmlns="http://www.w3.org/2000/svg"><g id="Vector" fill="#fff"><path d="M43.267 37.794L22.703 49.337c-.437.245-.97.245-1.406 0L.733 37.795c-.978-.548-.976-1.96 0-2.506l5.114-2.87L19.891 40.3c1.31.736 2.91.735 4.218 0l14.044-7.882 5.114 2.87c.978.549.976 1.96 0 2.507z"/><path d="M43.267 23.747l-5.114-2.87-14.044 7.881a4.31 4.31 0 01-4.218 0L5.847 20.877l-5.114 2.87c-.976.547-.978 1.958 0 2.506l20.564 11.541c.437.246.97.246 1.406 0l20.564-11.541c.976-.547.978-1.958 0-2.506zM9.3 28.143a1.437 1.437 0 110-2.873 1.437 1.437 0 010 2.873zm6.118 3.559a1.437 1.437 0 110-2.873 1.437 1.437 0 010 2.873zM22 35.035a1.437 1.437 0 110-2.873 1.437 1.437 0 010 2.873zm6.583-3.333a1.437 1.437 0 11.001-2.875 1.437 1.437 0 01-.001 2.875zm6.118-3.559a1.437 1.437 0 110-2.874 1.437 1.437 0 010 2.875z"/><path d="M43.267 14.711L22.703 26.253c-.437.245-.97.245-1.406 0L.733 14.71c-.978-.548-.976-1.959 0-2.505L21.297.664c.437-.245.97-.245 1.406 0l20.564 11.542c.978.547.976 1.958 0 2.505z"/></g></svg>