<svg width="44" height="44" fill="none" xmlns="http://www.w3.org/2000/svg"><path id="Vector" d="M22.837 19.105c-.483.41-1.191.41-1.674 0-4.575-3.879-6.928-7.643-6.928-11.34a7.765 7.765 0 1115.53 0c0 3.697-2.353 7.461-6.928 11.34zm0 5.79c4.575 3.879 6.928 7.643 6.928 11.34a7.765 7.765 0 11-15.53 0c0-3.697 2.353-7.461 6.928-11.34a1.293 1.293 0 011.674 0zm2.058-2.058a1.294 1.294 0 010-1.674c3.879-4.575 7.643-6.928 11.34-6.928a7.764 7.764 0 110 15.53c-3.697 0-7.461-2.353-11.34-6.928zm-5.79 0c-3.879 4.575-7.643 6.928-11.34 6.928a7.765 7.765 0 110-15.53c3.697 0 7.461 2.353 11.34 6.928.41.483.41 1.191 0 1.674z" fill="#fff"/></svg>