<svg width="44" height="36" fill="none" xmlns="http://www.w3.org/2000/svg"><path d="M22 25.7c6.804 0 12.32-5.614 12.32-12.54C34.32 6.234 28.804.62 22 .62S9.68 6.234 9.68 13.16c0 6.926 5.516 12.54 12.32 12.54zm-3.96 7.04c-.27 0-.534-.027-.788-.078a3.521 3.521 0 003.428 2.718h2.64a3.521 3.521 0 003.428-2.718 3.983 3.983 0 01-.788.078h-7.92zm-2.2-6.716v2.756a2.2 2.2 0 002.2 2.2h7.92a2.2 2.2 0 002.2-2.2v-2.756A13.844 13.844 0 0122 27.46c-2.212 0-4.302-.517-6.16-1.436zM37.764 8.465a1.76 1.76 0 11-2.489-2.49l3.08-3.08a1.76 1.76 0 112.49 2.49l-3.08 3.08zM36.52 13.38c0-.972.788-1.76 1.76-1.76h3.96a1.76 1.76 0 010 3.52h-3.96a1.76 1.76 0 01-1.76-1.76zm-1.336 5.015a1.76 1.76 0 012.481-.191l3.08 2.64a1.76 1.76 0 11-2.29 2.672l-3.08-2.64a1.76 1.76 0 01-.191-2.481zM7.48 13.38a1.76 1.76 0 00-1.76-1.76H1.76a1.76 1.76 0 000 3.52h3.96a1.76 1.76 0 001.76-1.76zm-1.145 4.824a1.76 1.76 0 112.29 2.672l-3.08 2.64a1.76 1.76 0 11-2.29-2.672l3.08-2.64zm2.39-9.739a1.76 1.76 0 01-2.49 0l-3.08-3.08a1.76 1.76 0 112.49-2.49l3.08 3.08a1.76 1.76 0 010 2.49z" id="Vector" fill="#fff"/></svg>