<svg width="44" height="44" fill="none" xmlns="http://www.w3.org/2000/svg"><path d="M1.959 8.231a8.771 8.771 0 002.3 4.05l1.023 1.01 8.023-8.023-1.023-1.01a8.777 8.777 0 00-4.05-2.3L.536.014a.433.433 0 00-.41.113.433.433 0 00-.113.41L1.96 8.23zm9.061 10.725l8.023-8.022L15.14 7.08l-8.024 8.022 3.905 3.854zm14.02 14.109l8.021-8.022 4.809 4.808-8.022 8.022-4.808-4.808zm14.66-1.39l-8.023 8.023 2.64 2.64A5.64 5.64 0 0038.33 44a5.64 5.64 0 004.012-1.661 5.68 5.68 0 000-8.023l-2.641-2.64zm-19.852-8.052a1.29 1.29 0 011.823 0l4.44 4.44 1.954-1.954-2.535-2.534a1.289 1.289 0 111.824-1.823l2.534 2.534 1.989-1.988-4.44-4.44a1.289 1.289 0 111.822-1.823l4.44 4.44 1.99-1.988-2.535-2.535a1.289 1.289 0 111.823-1.823l2.535 2.535 1.988-1.989-4.44-4.44a1.289 1.289 0 111.823-1.823l4.44 4.44 1.824-1.826c.55-.55.853-1.282.853-2.06s-.303-1.51-.853-2.06L37.093.853A2.894 2.894 0 0035.033 0c-.778 0-1.51.303-2.06.853L.853 32.974A2.893 2.893 0 000 35.034c0 .778.303 1.51.853 2.06l6.054 6.053c.55.55 1.281.853 2.06.853.778 0 1.51-.303 2.06-.853l1.826-1.826-2.535-2.535a1.29 1.29 0 111.824-1.823l2.534 2.535 1.989-1.989-4.44-4.44a1.289 1.289 0 111.822-1.823l4.44 4.44 1.99-1.988-2.535-2.535a1.289 1.289 0 111.823-1.823l2.534 2.535 1.989-1.989-4.44-4.44a1.289 1.289 0 010-1.823z" id="Vector" fill="#fff"/></svg>