<svg width="44" height="44" fill="none" xmlns="http://www.w3.org/2000/svg"><g id="Vector" fill="#fff"><path d="M8.643 42.712a1.29 1.29 0 001.29 1.289h24.135a1.29 1.29 0 001.289-1.29v-3.867H8.643v3.868zM17.53 1.064A4.474 4.474 0 0022 5.533a4.474 4.474 0 004.468-4.469V0H17.53v1.065zm5.121 19.699l-.653-.82-.653.82a1.29 1.29 0 01-.555.403l-.982.368.578.875c.128.194.201.42.212.652l.047 1.047 1.01-.279a1.29 1.29 0 01.686 0l1.01.28.047-1.048a1.29 1.29 0 01.212-.652l.578-.875-.981-.368a1.29 1.29 0 01-.556-.403z"/><path d="M43.68 12.742a943.937 943.937 0 00-8.656-9.702 1.289 1.289 0 00-.513-.347l-5.465-2v.37A7.055 7.055 0 0122 8.112a7.055 7.055 0 01-7.047-7.047v-.37l-5.463 2c-.197.071-.373.19-.513.346A944.808 944.808 0 00.32 12.742a1.29 1.29 0 00-.06 1.628l5.173 6.859a1.29 1.29 0 001.582.388l1.628-.773v15.422h26.714V20.844l1.628.773a1.29 1.29 0 001.582-.389l5.173-6.858a1.289 1.289 0 00-.06-1.627zm-28.644.836h1.805a1.29 1.29 0 010 2.578h-.514v.516a1.29 1.29 0 01-2.578 0V14.91l-.002-.044c0-.712.577-1.29 1.289-1.29zm1.805 16.5h-1.805a1.29 1.29 0 01-1.29-1.289c0-.015.002-.029.003-.044v-1.76a1.29 1.29 0 012.578 0v.515h.514a1.289 1.289 0 110 2.578zm8.484-3.254a1.29 1.29 0 01-1.101.2l-2.226-.615-2.226.615a1.289 1.289 0 01-1.63-1.185l-.104-2.307-1.272-1.927a1.289 1.289 0 01.623-1.917l2.162-.81 1.44-1.806a1.29 1.29 0 012.015 0l1.44 1.805 2.162.811a1.29 1.29 0 01.623 1.917l-1.273 1.927-.103 2.307a1.29 1.29 0 01-.53.985zm3.635 3.254h-1.804a1.29 1.29 0 110-2.578h.513v-.515a1.29 1.29 0 012.578 0v1.76c0 .015.003.03.003.044a1.29 1.29 0 01-1.29 1.29zm1.287-15.167v1.76a1.29 1.29 0 01-2.578 0v-.515h-.513a1.29 1.29 0 010-2.578h1.804c.712 0 1.29.577 1.29 1.29l-.003.043z"/></g></svg>