<svg width="44" height="44" fill="none" xmlns="http://www.w3.org/2000/svg"><g id="Vector" fill="#fff"><path d="M20.62 2.578c2.326 0 4.57.42 6.71 1.253.657-.783 1.246-1.474 1.754-2.055A21.202 21.202 0 0020.619 0a1.29 1.29 0 100 2.578zm12.958 8.775a3.876 3.876 0 01-.93-5.386c1.164-1.654 3.548-2.223 5.377-.942.19.132 2.695 1.926 4.945 5.386 1.627-2.613 1.338-6.112-.966-8.415-2.685-2.686-6.998-2.636-9.633 0C28.206 6.16 1.41 40.459.273 41.917a1.29 1.29 0 001.81 1.81c1.195-.933 24.446-19.097 35.092-27.916-1.077-2.114-2.48-3.67-3.597-4.458z"/><path d="M39.572 36.392c7.887-11.056 4.142-24.094-3.026-29.255-1.436-.923-2.833 1.07-1.481 2.11 7.037 5.2 8.57 16.889 2.67 25.283-2.78-2.587-6.322-4.844-10.212-4.844a6.82 6.82 0 00-6.812 6.812 6.82 6.82 0 006.812 6.812c3.969 0 7.569-1.91 10.385-4.902 2.246 2.535 3.662 4.902 3.692 4.953.307.522 1.064.87 1.764.457a1.29 1.29 0 00.458-1.764c-.137-.233-1.716-2.878-4.25-5.662zm-12.05 4.34a4.239 4.239 0 01-4.233-4.234c0-2.335 1.9-4.234 4.234-4.234 3.17 0 6.179 1.991 8.596 4.287-2.375 2.558-5.367 4.18-8.596 4.18z"/></g></svg>