<svg width="44" height="44" fill="none" xmlns="http://www.w3.org/2000/svg"><g id="Vector" fill="#fff"><path d="M12.025 6.447a2 2 0 001.9 1.373h16.15a2 2 0 001.9-1.373l1.26-3.82A2 2 0 0031.335 0h-18.67a2 2 0 00-1.9 2.626l1.26 3.82zm-.514 17.035c-.306.77.215 1.607 1.035 1.724 3.125.443 6.434.661 9.454.661 3.02 0 6.33-.218 9.454-.661.82-.117 1.341-.955 1.035-1.724-1.226-3.064-2.459-6.827-2.234-10.466.083-1.329-.885-2.618-2.216-2.618H15.96c-1.331 0-2.299 1.29-2.216 2.618.225 3.639-1.008 7.402-2.234 10.466zm9.578-2.393a1.289 1.289 0 111.822 1.822 1.289 1.289 0 01-1.822-1.822z"/><path d="M1.712 24.903c-.74-.38-1.712.131-1.712.964 0 5.079 11.11 7.735 22 7.735s22-2.656 22-7.735c0-.833-.971-1.344-1.712-.964-5.244 2.692-14.207 3.542-20.288 3.542-6.081 0-15.044-.85-20.288-3.542zm33.223 11.183c.12-.6-.47-1.112-1.072-.992-2.738.544-5.688.86-8.611.993-1.09.05-1.963.935-1.963 2.026V42a2 2 0 002 2h6.437a2 2 0 001.962-1.612l1.247-6.302zM18.71 44a2 2 0 002-2v-3.887c0-1.09-.873-1.977-1.962-2.026-2.924-.133-5.873-.448-8.611-.993-.601-.12-1.192.392-1.072.992l1.248 6.302A2 2 0 0012.274 44h6.437zM4.92 23.486c.127.046.236-.062.236-.197 0-1.265 1.547-2.422 4.018-3.32.615-.223 1.116-.7 1.293-1.331.23-.817.42-1.649.552-2.48.191-1.218-.916-2.162-2.12-1.898C3.534 15.434 0 17.308 0 19.422c0 1.542 1.85 2.955 4.92 4.064zm30.181-9.226c-1.204-.264-2.312.68-2.12 1.898.131.832.323 1.664.552 2.48.177.63.678 1.108 1.293 1.332 2.47.897 4.018 2.054 4.018 3.32 0 .134.11.242.236.196 3.07-1.11 4.92-2.522 4.92-4.064 0-2.114-3.535-3.988-8.899-5.162z"/></g></svg>