<svg width="44" height="44" fill="none" xmlns="http://www.w3.org/2000/svg"><g id="Vector" fill="#fff"><path d="M14.926 9.481L7.902 6.188c-1.092-.512-2.226.622-1.714 1.714l3.293 7.024 3.999-1.446 1.446-3.999zm19.593 5.445l3.293-7.024c.512-1.092-.622-2.226-1.714-1.714l-7.024 3.293 1.446 3.999 3.999 1.446zM9.481 29.074l-3.293 7.024c-.512 1.092.622 2.226 1.714 1.714l7.024-3.293-1.446-3.999-3.999-1.446zm19.593 5.445l7.024 3.293c1.092.512 2.226-.622 1.714-1.714l-3.293-7.024-3.999 1.446-1.446 3.999zM22 23.29a1.29 1.29 0 100-2.58 1.29 1.29 0 000 2.58z"/><path d="M43.15 20.788l-14.643-5.295L23.212.851c-.41-1.135-2.014-1.135-2.424 0l-5.295 14.642L.851 20.788c-1.135.41-1.135 2.014 0 2.424l14.642 5.295 5.295 14.642c.41 1.134 2.014 1.134 2.424 0l5.295-14.642 14.642-5.295c1.135-.41 1.135-2.014 0-2.424zm-14.275 2.501h-3.23a3.886 3.886 0 01-2.356 2.356v3.23a1.29 1.29 0 01-2.578 0v-3.23a3.886 3.886 0 01-2.356-2.356h-3.23a1.29 1.29 0 010-2.578h3.23a3.886 3.886 0 012.356-2.356v-3.23a1.29 1.29 0 012.578 0v3.23a3.886 3.886 0 012.356 2.356h3.23a1.29 1.29 0 010 2.578z"/></g></svg>