<svg width="41" height="41" fill="none" xmlns="http://www.w3.org/2000/svg"><path d="M30.104.671H10.896A10.224 10.224 0 00.67 10.896v19.208a10.224 10.224 0 0010.224 10.224h19.21a10.224 10.224 0 0010.223-10.224V10.896A10.224 10.224 0 0030.104.67zm1.347 29.15a2.265 2.265 0 01-1.605.664H11.15a2.27 2.27 0 110-4.54h18.7a2.27 2.27 0 011.605 3.874l-.003.001zm0-7.716a2.263 2.263 0 01-1.605.664H11.15a2.27 2.27 0 110-4.538h18.7a2.27 2.27 0 011.605 3.872l-.003.002zm0-7.715a2.263 2.263 0 01-1.605.664H11.15a2.27 2.27 0 110-4.539h18.7a2.27 2.27 0 011.605 3.873l-.003.002z" fill="#fff"/></svg>