<svg width="40" height="40" fill="none" xmlns="http://www.w3.org/2000/svg"><path fill-rule="evenodd" clip-rule="evenodd" d="M29.776 0H10.567A10.224 10.224 0 00.343 10.224v19.209a10.224 10.224 0 0010.224 10.224h19.209A10.225 10.225 0 0040 29.433V10.224A10.224 10.224 0 0029.776 0zM12.224 27.776a2.249 2.249 0 010-3.18l4.767-4.767-4.767-4.767a2.249 2.249 0 013.18-3.18l4.767 4.766 4.767-4.767a2.249 2.249 0 013.18 3.18l-4.766 4.768 4.767 4.766a2.249 2.249 0 01-3.18 3.18L20.17 23.01l-4.766 4.767a2.249 2.249 0 01-3.18 0z" fill="#fff"/></svg>