<svg width="173" height="173" fill="none" xmlns="http://www.w3.org/2000/svg"><path fill-rule="evenodd" clip-rule="evenodd" d="M95.065 102.515l-9 30.677V93.498L57.212 122.4c-5.953 5.963-5.953 15.62 0 21.583l28.851 28.903 28.851-28.903c5.954-5.963 5.954-15.62 0-21.583l-19.85-19.886zm-2.209-15.83l28.851 28.903c5.953 5.963 15.592 5.963 21.545 0l28.852-28.903-28.852-28.903c-5.953-5.963-15.592-5.963-21.545 0l-19.841 19.876 30.623 9.027H92.856zm-15.8-15.838L57.213 50.97c-5.953-5.964-5.953-15.62 0-21.584L86.064.473l28.851 28.903c5.954 5.963 5.954 15.62 0 21.584l-28.85 28.902v.01-39.695l-9.01 30.67zm2.2 15.838l.004-.005.007-.006-28.854-28.905c-5.947-5.958-15.605-5.958-21.553 0L0 86.68l28.854 28.905c5.947 5.958 15.605 5.958 21.552 0l21.55-21.588-1.703 1.705-30.614-9.017h39.617z" fill="#fff"/><path d="M57.203 143.984l28.852 28.903V93.488l-28.852 28.903c-5.953 5.964-5.953 15.62 0 21.584v.009zm57.712-93.014l-28.85 28.902V.472l28.85 28.904c5.954 5.963 5.954 15.62 0 21.584v.01zm6.801 64.617L92.865 86.685h79.258l-28.852 28.902c-5.953 5.964-15.592 5.964-21.545 0h-.01zM28.857 57.773L.006 86.685h79.257l-28.85-28.903c-5.954-5.963-15.593-5.963-21.546 0l-.01-.01z" fill="#fff"/></svg>