<svg width="32" height="30" fill="none" xmlns="http://www.w3.org/2000/svg"><g id="social"><rect width="32" height="30" rx="15" fill="url(#paint0_linear_5441_14433)"/><path id="Vector" d="M12.355 8.167h7.29c2.004 0 3.644 1.537 3.644 3.417v6.833c0 1.879-1.64 3.417-3.645 3.417h-7.288c-2.005 0-3.645-1.538-3.645-3.417v-6.833c0-1.88 1.64-3.417 3.644-3.417zM16 17.847c1.677 0 3.037-1.275 3.037-2.847s-1.36-2.847-3.037-2.847c-1.677 0-3.037 1.275-3.037 2.847s1.36 2.847 3.037 2.847zm-3.948-5.694c.503 0 .91-.383.91-.854 0-.472-.407-.854-.91-.854-.504 0-.911.382-.911.854s.407.854.91.854z" fill="#fff"/></g><defs><linearGradient id="paint0_linear_5441_14433" x1="0" y1="0" x2="29.938" y2="31.933" gradientUnits="userSpaceOnUse"><stop stop-color="#FADD1D"/><stop offset=".525" stop-color="#FE3282"/><stop offset="1" stop-color="#701CCE"/></linearGradient></defs></svg>