<svg width="342" height="173" fill="none" xmlns="http://www.w3.org/2000/svg"><path fill-rule="evenodd" clip-rule="evenodd" d="M95.065 102.515l-9 30.677V93.498L57.212 122.4c-5.953 5.963-5.953 15.62 0 21.583l28.851 28.903 28.851-28.903c5.954-5.963 5.954-15.62 0-21.583l-19.85-19.886zm-2.209-15.83l28.851 28.903c5.953 5.963 15.592 5.963 21.545 0l28.852-28.903-28.852-28.903c-5.953-5.963-15.592-5.963-21.545 0l-19.841 19.876 30.623 9.027H92.856zm-15.8-15.838L57.213 50.97c-5.953-5.964-5.953-15.62 0-21.584L86.064.473l28.851 28.903c5.954 5.963 5.954 15.62 0 21.584l-28.85 28.902v.01-39.695l-9.01 30.67zm2.2 15.838l.004-.005.007-.006-28.854-28.905c-5.947-5.958-15.605-5.958-21.553 0L0 86.68l28.854 28.905c5.947 5.958 15.605 5.958 21.552 0l21.55-21.588-1.703 1.705-30.614-9.017h39.617z" fill="#fff"/><path d="M57.203 143.984l28.852 28.903V93.488l-28.852 28.903c-5.953 5.964-5.953 15.62 0 21.584v.009zm57.712-93.014l-28.85 28.902V.472l28.85 28.904c5.954 5.963 5.954 15.62 0 21.584v.01zm6.801 64.617L92.865 86.685h79.258l-28.852 28.902c-5.953 5.964-15.592 5.964-21.545 0h-.01zM28.857 57.773L.006 86.685h79.257l-28.85-28.903c-5.954-5.963-15.593-5.963-21.546 0l-.01-.01zM132.204 31l-6.156 8.434c-.563.775-.012 1.862.944 1.862h12.311c.956 0 1.506-1.087.943-1.862l-6.155-8.433a1.167 1.167 0 00-1.887 0zM39.417 141.695l6.155-8.434c.563-.774.013-1.862-.943-1.862H32.318c-.956 0-1.507 1.088-.944 1.862l6.156 8.434a1.167 1.167 0 001.887 0z" fill="#fff"/><path fill-rule="evenodd" clip-rule="evenodd" d="M42.038 33.973l-2.03-2.782a1.167 1.167 0 00-1.887 0l-2.03 2.782h5.947zM34.64 35.96h8.849l2.674 3.665c.563.774.013 1.861-.943 1.861H32.909c-.956 0-1.506-1.087-.944-1.861l2.675-3.665zm101.775 103.436l-2.029 2.781a1.167 1.167 0 01-1.887 0l-2.03-2.781h5.946zm1.451-1.988h-8.847l-2.676-3.665c-.563-.774-.012-1.862.944-1.862h12.311c.956 0 1.506 1.088.943 1.862l-2.675 3.665z" fill="#fff"/><path d="M181.58 63.011l1.201-1.517c2.924 2.796 5.81 3.941 8.915 3.941 3.477 0 5.258-1.422 5.258-3.616 0-6.136-16.869-1.374-16.869-14.342 0-6.183 4.934-10.582 12.716-10.582 2.372 0 4.419.4 6.182 1.069 2.971 1.126 3.981 4.828 2.047 7.357l-.952 1.25c-2.01-1.832-4.162-2.977-7.268-2.977-3.562 0-5.391 1.507-5.391 3.664 0 5.82 16.917 2.06 16.917 13.921 0 6.737-5.03 10.945-12.716 10.945-3.42 0-6.153-.754-8.382-1.87-2.715-1.355-3.515-4.857-1.639-7.243h-.019zm26.842-8.435c0-12.004 9.096-17.729 17.421-17.729s17.65 5.725 17.65 17.73c0 12.003-9.287 17.585-17.65 17.585-8.363 0-17.421-5.859-17.421-17.586zm27.527 0c0-7.423-5.21-10.677-10.106-10.677s-9.877 3.254-9.877 10.677c0 7.424 4.934 10.487 9.877 10.487 4.944 0 10.106-3.34 10.106-10.487zm47.368 16.861h-3.162a4.773 4.773 0 01-4.706-4.017l-1.924-12.061-5.858 11.107c-1.152 2.175-4.267 2.175-5.41-.01l-5.839-11.193-1.962 12.157a4.762 4.762 0 01-4.705 4.007h-3.172l6.22-34.446h1.01l11.153 22.586 11.202-22.586h1.009l6.125 34.446.019.01zm12.706-6.603h9.592a4.769 4.769 0 014.763 4.77v1.823h-21.536V37.582h21.031v1.775a4.769 4.769 0 01-4.763 4.77h-9.096v6.594h13.173v6.413h-13.173v7.69l.009.01zm-94.431 44.637l-1.162-2.853h-11.658l-1.2 2.882a4.766 4.766 0 01-4.391 2.929h-4.649l15.688-34.446h.962l15.64 34.446h-4.81a4.767 4.767 0 01-4.41-2.967l-.01.009zm-3.219-8.759l-3.839-9.304-3.791 9.304h7.639-.009zm42.929 11.717h-6.153a4.746 4.746 0 01-3.981-2.156l-8.782-13.464v15.62h-7.316V83.355a4.769 4.769 0 014.763-4.771h7.677c8.001 0 13.03 3.34 13.03 10.534 0 5.172-3.2 8.703-8.82 9.848l9.601 13.463h-.019zm-18.926-18.234h3.477c4.934 0 7.134-1.422 7.134-4.628 0-3.025-1.877-4.533-6.22-4.533h-4.391v9.16zm30.623 13.463V85.13h-4.61a4.769 4.769 0 01-4.763-4.771v-1.775h21.298a4.769 4.769 0 014.763 4.77v1.776h-9.373v27.299h-2.553a4.768 4.768 0 01-4.762-4.771zm33.182-.215V78.369h2.505a4.769 4.769 0 014.763 4.77v29.075h-2.505a4.769 4.769 0 01-4.763-4.771zm34.795-29.074h2.601a4.769 4.769 0 014.762 4.77v29.628h-1.01L308.67 93.712v18.502h-2.505a4.769 4.769 0 01-4.763-4.771V77.768h1.01l18.564 19.007V78.36v.01zm-48.671 23.808l-6.155 8.434c-.563.774-.013 1.862.943 1.862h12.311c.956 0 1.507-1.088.944-1.862l-6.156-8.434a1.168 1.168 0 00-1.887 0zm50.655-41.139l-6.155 8.434c-.563.774-.013 1.861.943 1.861h12.311c.956 0 1.506-1.087.943-1.861l-6.155-8.434a1.167 1.167 0 00-1.887 0zm-70.279 67.951v3.922h4.001a3.362 3.362 0 013.362 3.362h-11.045V119.02h10.787a3.339 3.339 0 01-3.338 3.339h-3.767v3.362h6.753v3.268h-6.753zm-13.308 7.727c-1.505 0-2.752-.285-3.8-.727-1.85-.78-1.975-3.167-.735-4.745 1.504 1.438 2.984 2.028 4.582 2.028 1.786 0 2.703-.731 2.703-1.863 0-3.161-8.672-.708-8.672-7.383 0-3.184 2.538-5.448 6.533-5.448 1.107 0 2.073.169 2.917.455 1.859.631 2.012 2.962.82 4.522-1.034-.944-2.139-1.534-3.737-1.534-1.833 0-2.773.779-2.773 1.887 0 2.996 8.695 1.062 8.695 7.171 0 3.467-2.585 5.637-6.533 5.637zm-15.865 0c-3.91 0-6.982-2.347-6.982-7.369V119.02a3.701 3.701 0 013.701 3.701v6.273c0 2.887 1.256 4.131 3.258 4.131 2.071 0 3.258-1.338 3.258-4.131v-9.974a3.7 3.7 0 013.7 3.701v6.626c0 4.599-2.653 7.369-6.935 7.369zm-18.969 0c-4.299 0-8.998-3.011-8.998-9.034 0-6.163 4.699-9.104 8.998-9.104 4.274 0 9.116 2.941 9.116 9.104 0 6.023-4.795 9.034-9.116 9.034zm0-3.647c2.527 0 5.219-1.717 5.219-5.387 0-3.811-2.692-5.481-5.219-5.481-2.551 0-5.102 1.67-5.102 5.481 0 3.67 2.551 5.387 5.102 5.387zm-15.623-7.442v-6.607a3.753 3.753 0 013.753 3.753v13.5h-3.753v-7.284h-6.632v7.284a3.752 3.752 0 01-3.753-3.752V119.02h3.753v6.607h6.632z" fill="#fff"/></svg>