<svg width="53" height="73" fill="none" xmlns="http://www.w3.org/2000/svg"><g id="Vector" fill="#fff"><path d="M34.201 44.315l-.76-1.522a1 1 0 01-.106-.447V32.77a1 1 0 00-1-1h-1.23c-1.229 0-2.229 1-2.229 2.229v2.754a1 1 0 01-1 1h-2.204a1 1 0 01-1-1V34c0-1.23-1-2.23-2.23-2.23h-1.229a1 1 0 00-1 1v9.576a1 1 0 01-.105.447l-1.955 3.91a1 1 0 00-.106.446v14.792a1 1 0 001 1h1.23c1.229 0 2.229-1 2.229-2.23V50.75a6.441 6.441 0 016.434-6.434h5.26z"/><path d="M26.71 50.749v8.678c0 .274.111.538.316.718a11.191 11.191 0 007.388 2.795h.087a1 1 0 001-1V49.52a1 1 0 00-1-1H28.94c-1.23 0-2.23 1-2.23 2.229z"/><path d="M46.203 6.392v4.848a1 1 0 01-1 1h-2.205a1 1 0 01-1-1V6.392h-3.459a1 1 0 00-1 1v3.848a1 1 0 01-1 1h-2.204a1 1 0 01-1-1V7.392a1 1 0 00-1-1h-3.459v4.848a1 1 0 01-1 1h-2.204a1 1 0 01-1-1V6.392h-4.459v4.848a1 1 0 01-1 1h-2.205a1 1 0 01-1-1V6.392H12.55a1 1 0 00-1 1v3.848a1 1 0 01-1 1H8.345a1 1 0 01-1-1V6.392h-5.56a1 1 0 00-1 1v63.913a1 1 0 001 1h49.978a1 1 0 001-1V7.392a1 1 0 00-1-1h-5.56zM11.55 38.567a1 1 0 01-1 1H8.345a1 1 0 01-1-1v-2.204a1 1 0 011-1h2.205a1 1 0 011 1v2.205zm0-8.663a1 1 0 01-1 1H8.345a1 1 0 01-1-1V27.7a1 1 0 011-1h2.205a1 1 0 011 1v2.205zm0-8.663a1 1 0 01-1 1H8.345a1 1 0 01-1-1v-2.205a1 1 0 011-1h2.205a1 1 0 011 1v2.205zm28.155 45.904h-5.29c-2.84 0-5.604-.792-7.99-2.243-.475-.288-1.097-.172-1.48.231a6.416 6.416 0 01-4.669 2.012h-5.433a1 1 0 01-1-1V46.157a1 1 0 01.105-.447l1.955-3.91a1 1 0 00.106-.447v-22.38a1 1 0 011-1h2.204a1 1 0 011 1v7.593a1 1 0 001 1h1.23c1.34 0 2.585.412 3.616 1.115a1.279 1.279 0 001.43 0 6.398 6.398 0 013.616-1.115h1.23a1 1 0 001-1v-7.593a1 1 0 011-1h2.204a1 1 0 011 1v22.38a1 1 0 00.106.447l1.955 3.91a1 1 0 01.105.447v20.988zm2.293-65.601a1 1 0 011-1h2.205a1 1 0 011 1v4.848h-4.205V1.544zm-8.663 0a1 1 0 011-1h2.204a1 1 0 011 1v3.848a1 1 0 01-1 1h-2.204a1 1 0 01-1-1V1.544zm-8.663 0a1 1 0 011-1h2.204a1 1 0 011 1v4.848h-4.204V1.544zm-8.664 0a1 1 0 011-1h2.205a1 1 0 011 1v4.848h-4.205V1.544zm-8.663 0a1 1 0 011-1h2.205a1 1 0 011 1v3.848a1 1 0 01-1 1H7.345V1.544z"/></g></svg>