<svg width="55" height="75" fill="none" xmlns="http://www.w3.org/2000/svg"><path d="M31.541 30.881a.953.953 0 00-1.835.35l-.4 42.009a.99.99 0 001.017 1.003 86.034 86.034 0 008.642-.697.992.992 0 00.858-1.038l-.283-5.325a113.695 113.695 0 00-7.998-36.302zM14.877 66.948l-.384 5.32a.991.991 0 00.838 1.053 86.01 86.01 0 008.627.861.99.99 0 001.036-.983l.4-42.01a.954.954 0 00-1.828-.384 113.692 113.692 0 00-8.689 36.143zM39.586 30.87l-.163-.18a1 1 0 00-.731-.327l-1.252-.012a1.01 1.01 0 00-.95 1.366 117.978 117.978 0 017.357 35.237l.243 4.579a.988.988 0 001.194.918 66.74 66.74 0 007.411-2.047 2.155 2.155 0 001.453-2.055 56.093 56.093 0 00-14.563-37.48zm-23.16-.72a1 1 0 00-.737.315l-.166.176A56.091 56.091 0 00.25 67.836a2.155 2.155 0 001.414 2.082c2.479.9 4.96 1.617 7.37 2.188a.988.988 0 001.211-.896l.33-4.572a117.98 117.98 0 018.027-35.092 1.01 1.01 0 00-.924-1.383l-1.252-.012zm2.008-4.332c.021.025.052.04.085.04l18.163.172a.111.111 0 00.085-.038 18.848 18.848 0 004.607-12.168c.028-2.976-1.729-5.596-4.285-6.748-.397-.178-.678-.56-.673-.994l.03-3.2a2.157 2.157 0 00-4.313-.042l-.03 3.196c-.004.436-.293.812-.694.982a7.192 7.192 0 00-2.485 1.758c-.57.62-1.763.608-2.32-.022a7.193 7.193 0 00-2.451-1.805c-.398-.178-.68-.56-.676-.995l.03-3.196a2.157 2.157 0 00-4.312-.04l-.03 3.2c-.005.435-.293.81-.692.981-2.578 1.103-4.385 3.69-4.413 6.665a18.849 18.849 0 004.374 12.254z" id="Vector" fill="#fff"/></svg>