<svg width="54" height="57" fill="none" xmlns="http://www.w3.org/2000/svg"><g id="Vector" fill="#fff"><path d="M27.895 29.34a1 1 0 01-1.273-1.272l2.338-6.72c.11-.313.054-.66-.14-.93-3.41-4.725-6.332-11.577-6.332-18.453v-.643a1 1 0 00-1-1H1.08a1 1 0 00-1 1v54.205a1 1 0 001 1h51.536a1 1 0 001-1V32.45a1 1 0 00-1-1h-.643c-5.152 0-10.765-1.704-15.612-4.66a1.018 1.018 0 00-.863-.095l-7.603 2.645zM14.34 18.245a1.02 1.02 0 011.327.517 39.42 39.42 0 001.383 2.709 1.02 1.02 0 01-.36 1.377l-1.106.657a.982.982 0 01-1.36-.356 42.902 42.902 0 01-1.575-3.084.982.982 0 01.51-1.31l1.181-.51zm-2.371-2.58a.982.982 0 01-1.258-.628 42.671 42.671 0 01-.903-3.347.982.982 0 01.77-1.176l1.261-.254a1.02 1.02 0 011.19.78c.227.988.492 1.97.794 2.938a1.02 1.02 0 01-.637 1.273l-1.217.415zM8.763 3.2a.982.982 0 01.988-1h1.286c.552 0 .999.448 1.013 1 .023.927.078 1.855.165 2.774a1.02 1.02 0 01-.886 1.114l-1.277.153a.982.982 0 01-1.1-.874 43.5 43.5 0 01-.19-3.167zm.826 36.335c.253-.492.857-.688 1.334-.409.878.514 1.713 1.1 2.495 1.755.424.354.444.99.067 1.393l-.877.94c-.377.404-1.008.423-1.436.074a14.975 14.975 0 00-1.753-1.233c-.474-.285-.67-.885-.417-1.376l.587-1.144zm4.836 7.445c-.292-.468-.194-1.091.254-1.414l1.043-.752c.449-.323 1.076-.223 1.374.242a18.21 18.21 0 011.425 2.699c.216.508-.056 1.082-.575 1.27l-1.21.437c-.52.187-1.09-.083-1.312-.589a14.907 14.907 0 00-1-1.893zm2.732-19.31a.982.982 0 01.23-1.387l1.05-.742a1.02 1.02 0 011.405.232 39.939 39.939 0 001.912 2.37 1.02 1.02 0 01-.07 1.422l-.948.87a.982.982 0 01-1.404-.07 43.26 43.26 0 01-2.175-2.695zm21.254 15.258a.982.982 0 01-.62-1.262l.423-1.215a1.02 1.02 0 011.278-.628c.966.31 1.949.581 2.937.815.537.127.884.655.771 1.196l-.263 1.259a.982.982 0 01-1.181.762 42.77 42.77 0 01-3.345-.927zm13.117 1.049a.982.982 0 01-1 .988 43.416 43.416 0 01-3.455-.218.982.982 0 01-.868-1.106l.163-1.276a1.02 1.02 0 011.12-.878c1.007.102 2.024.166 3.04.191.553.014 1 .46 1 1.013v1.286zM30.633 36.89a1.02 1.02 0 011.379-.35 39.69 39.69 0 002.704 1.404c.5.236.73.825.507 1.33l-.518 1.177a.982.982 0 01-1.314.502 42.946 42.946 0 01-3.078-1.6.982.982 0 01-.345-1.362l.665-1.101zm-2.905-3.175c.44.334.543.957.221 1.406l-.75 1.045a.982.982 0 01-1.388.22 43.216 43.216 0 01-2.681-2.195.982.982 0 01-.059-1.405l.877-.941a1.02 1.02 0 011.421-.06c.76.673 1.55 1.318 2.358 1.93zM1.723 37.64c0-.553.448-1.003 1-.973a18.23 18.23 0 013.02.418c.539.12.847.676.696 1.208l-.351 1.237c-.15.531-.703.837-1.243.722a14.993 14.993 0 00-2.123-.293c-.551-.037-1-.48-1-1.033V37.64zM17.68 54.884c-.553 0-.997-.448-1.033-1a14.185 14.185 0 00-.018-.244c-.046-.55.327-1.06.874-1.142l1.271-.19c.547-.082 1.059.294 1.11.844.023.243.041.488.055.732.03.552-.421 1-.973 1H17.68zm33.529-48.01a1 1 0 001.401-.012l.048-.048a2.465 2.465 0 00.727-1.754c0-.663-.258-1.286-.727-1.755a2.465 2.465 0 00-1.755-.727c-.663 0-1.286.258-1.754.727l-.085.084a1 1 0 00.013 1.427l2.132 2.058z"/><path d="M48.872 10.6a1 1 0 00-.013-1.427l-2.132-2.058a1 1 0 00-1.401.013L33.313 19.14a1 1 0 00-.237.379l-1.118 3.213a1 1 0 001.273 1.273l3.213-1.118a.999.999 0 00.378-.237l12.05-12.05z"/></g></svg>