<svg width="63" height="57" fill="none" xmlns="http://www.w3.org/2000/svg"><g id="Vector" fill="#fff"><path d="M36.5 8.308a1 1 0 001.364-.932V1.235A1 1 0 0036.5.303l-4.6 1.793a1 1 0 01-.727 0l-4.6-1.793a1 1 0 00-1.364.932v6.14a1 1 0 001.363.933l4.601-1.793a1 1 0 01.727 0l4.6 1.793z"/><path d="M53.027 51.267a1 1 0 00.951.826l7.673.262a1 1 0 001.02-1.165L55.497 8.44a1 1 0 00-.609-.761L43.717 3.13a1 1 0 00-1.303.547L32.54 27.77c-.34.828-1.512.828-1.85 0L20.813 3.678a1 1 0 00-1.302-.547L8.34 7.679a1 1 0 00-.61.76L.559 51.19a1 1 0 001.02 1.165l7.673-.262a1 1 0 00.95-.826l3.29-18.637c.1-.557.918-.494.929.072l-1.028 13.97-.947 8.848a1 1 0 00.995 1.106h13.477a1 1 0 00.876-.518l2.945-5.352a1 1 0 011.752 0l2.945 5.352a1 1 0 00.876.518H49.79a1 1 0 00.994-1.106l-.947-8.848-1.028-13.987c.011-.565.829-.629.927-.072l3.292 18.654zM46.3 21.412a1 1 0 01-1 1h-5.499a1 1 0 01-1-1V20.6a1 1 0 011-1H45.3a1 1 0 011 1v.812z"/></g></svg>