<svg width="30" height="64" fill="none" xmlns="http://www.w3.org/2000/svg"><path d="M5.748 9.978a1 1 0 00-1-1H1.227a1 1 0 00-1 1v7.256c0 .942 1.182 1.361 1.776.631l3.52-4.329a1 1 0 00.225-.63V9.977zm18.648 2.93a1 1 0 00.221.627l3.43 4.256c.591.735 1.778.316 1.778-.628V9.978a1 1 0 00-1-1h-3.429a1 1 0 00-1 1v2.93zm-10.75 15.426a1 1 0 011-1h.76a1 1 0 011 1v23.165a1 1 0 001 1h11.42a1 1 0 001-1V25.396a1 1 0 00-.222-.627l-7.748-9.631a1 1 0 01-.22-.627V9.978a1 1 0 00-1-1h-3.23a1 1 0 00-1 1v6.52a1 1 0 01-1 1h-.76a1 1 0 01-1-1v-6.52a1 1 0 00-1-1H9.508a1 1 0 00-1 1v4.53a1 1 0 01-.223.63L.45 24.796a1 1 0 00-.223.63V51.5a1 1 0 001 1h11.419a1 1 0 001-1V28.334zM.227 1.322a1 1 0 011-1h3.521a1 1 0 011 1v2.946a1 1 0 01-1 1H1.227a1 1 0 01-1-1V1.322zm0 55.887a1 1 0 011-1h11.419a1 1 0 011 1v5.419a1 1 0 01-1 1H1.226a1 1 0 01-1-1v-5.42zM8.508 1.322a1 1 0 011-1h11.128a1 1 0 011 1v2.946a1 1 0 01-1 1H9.508a1 1 0 01-1-1V1.322zm7.898 55.887a1 1 0 011-1h11.42a1 1 0 011 1v5.419a1 1 0 01-1 1h-11.42a1 1 0 01-1-1v-5.42zm7.99-55.887a1 1 0 011-1h3.43a1 1 0 011 1v2.946a1 1 0 01-1 1h-3.43a1 1 0 01-1-1V1.322z" id="Vector" fill="#fff"/></svg>