<svg width="56" height="56" fill="none" xmlns="http://www.w3.org/2000/svg"><g id="Vector" fill="#fff"><path d="M35.098.545H20.87c-4.752 0-8.619 3.866-8.619 8.619a8.59 8.59 0 007.74 8.574c.686.07 1.262.208 1.762.423 2.877 1.237 4.75 4.111 4.808 7.35v29.342a1 1 0 001 1h1.241c.553 0 1-.446 1-.998l.003-29.19c0-3.511 1.648-6.316 4.41-7.504.5-.215 1.076-.354 1.762-.423a8.59 8.59 0 007.74-8.574c0-4.753-3.867-8.62-8.62-8.62zm.779 9.61c-1.427.144-2.748.475-3.927.982-1.022.44-1.988.995-2.872 1.652a1.618 1.618 0 01-1.918.011 15.233 15.233 0 00-2.926-1.663c-1.179-.507-2.5-.838-3.927-.982a1.62 1.62 0 01.327-3.224c1.756.178 3.398.592 4.88 1.23.701.3 1.384.646 2.043 1.032.336.197.754.195 1.088-.003.65-.386 1.327-.73 2.024-1.03 1.483-.638 3.124-1.051 4.88-1.23a1.619 1.619 0 11.328 3.224z"/><path d="M55.694 37.86l-1.922-17.902c-.416-3.873-2.453-7.235-5.42-9.484-.605-.46-1.441-.01-1.57.74a11.815 11.815 0 01-10.478 9.748c-.347.035-.62.095-.809.176-1.557.67-2.45 2.32-2.45 4.527l-.003 29.205c0 .552.448.983 1 .983h5.65a6.905 6.905 0 006.444-4.424c.434-1.127.47-2.367.162-3.535a50.893 50.893 0 01-.324-1.302c-.097-.448-2.826-12.846-.255-22.211a1.62 1.62 0 113.126.858c-2.085 7.59-.732 16.085.195 20.264.116.523.633.855 1.143.69 3.532-1.132 5.952-4.54 5.511-8.333zM23.32 25.543c-.044-1.952-1.16-3.68-2.847-4.405-.19-.082-.462-.14-.81-.176a11.815 11.815 0 01-10.458-9.647c-.137-.75-.981-1.192-1.582-.723-2.892 2.256-4.87 5.584-5.269 9.405L.487 37.884c-.426 3.776 1.978 7.163 5.488 8.301.51.166 1.03-.166 1.145-.69.927-4.182 2.277-12.67.194-20.256a1.62 1.62 0 013.125-.858c2.332 8.492.744 17.887-.243 22.204 0 .004.002.007.006.007s.007.004.006.008c-.12.506-.23.942-.322 1.294-.308 1.168-.272 2.408.162 3.535a6.905 6.905 0 006.444 4.424h5.828a1 1 0 001-1v-29.31z"/></g></svg>