<svg width="63" height="61" fill="none" xmlns="http://www.w3.org/2000/svg"><g id="Vector" fill="#fff"><path d="M62.427 39.782l-13.26-33.51a1.097 1.097 0 00-.668-.646l-6.002-2.102a1.014 1.014 0 00-1.06.25c-1.634 1.669-6.324 6.365-8.21 8.274a.988.988 0 00-.055 1.327l1.857 2.248c.167.204.258.46.256.724l-.435 42.998a1 1 0 001 1.01h12.282a1.111 1.111 0 001.102-1.269l-3.49-25.07c-.148-1.058 1.244-1.58 1.827-.685l6.06 9.29a1.08 1.08 0 001.214.467l6.836-1.826a1.12 1.12 0 00.746-1.48zM30.486 10.108a.995.995 0 001.477.067c1.607-1.622 4.722-4.768 6.488-6.554a.998.998 0 00-.383-1.644L33.627.427a7.039 7.039 0 00-4.587 0l-3.722 1.3a.993.993 0 00-.443 1.57c1.495 1.82 4.205 5.105 5.612 6.811z"/><path d="M22.175 3.509a.99.99 0 00-1.096-.303l-6.914 2.42a1.096 1.096 0 00-.667.645L.238 39.781a1.091 1.091 0 00.045.913 1.118 1.118 0 00.701.568l6.836 1.826a1.08 1.08 0 001.213-.468l6.06-9.289c.584-.894 1.976-.373 1.829.685l-3.491 25.07a1.119 1.119 0 00.256.89 1.155 1.155 0 00.846.38h17.09a1 1 0 001-.99l.431-42.25a1.04 1.04 0 00-.24-.683c-1.431-1.727-8.652-10.512-10.64-12.924zm6.72 26.42a1.442 1.442 0 010 2.883 1.442 1.442 0 010-2.883zm0 7.114a1.442 1.442 0 010 2.883 1.442 1.442 0 010-2.883z"/></g></svg>