<svg width="60" height="66" fill="none" xmlns="http://www.w3.org/2000/svg"><path id="Shape" d="M59.384 52.888c-4.147-2.4-8.016-7.023-8.016-17.444 0-9.256 6.106-16.224 8.25-18.384a1.123 1.123 0 00.061-1.505l-4.547-5.458a1.13 1.13 0 00-1.015-.386c-11.768 1.54-15.204-5.873-16.01-8.314a1.111 1.111 0 00-1.06-.756h-14.02a1.111 1.111 0 00-1.061.756c-.805 2.441-4.242 9.853-16.01 8.314a1.13 1.13 0 00-1.01.386L.397 15.555A1.123 1.123 0 00.46 17.06c2.14 2.16 8.246 9.128 8.246 18.384 0 10.421-3.869 15.045-8.016 17.444a1.123 1.123 0 00-.415 1.51l4.571 8.228c.274.495.872.709 1.397.5 3.456-1.393 15.973-5.706 22.955 1.654a1.17 1.17 0 001.68 0c6.982-7.36 19.498-3.047 22.954-1.654a1.123 1.123 0 001.397-.5l4.572-8.228a1.123 1.123 0 00-.416-1.51zm-8.333-39.606c.554 0 1.123-.019 1.7-.058.359-.023.707.127.938.402l1.53 1.835a1.123 1.123 0 010 1.435 35.424 35.424 0 00-1.334 1.714 1.123 1.123 0 01-1.814-1.324c.164-.224.326-.442.487-.652a.7.7 0 00-.015-.873.7.7 0 00-.562-.25 26.69 26.69 0 01-.932.017h-.492a1.123 1.123 0 01.02-2.246h.474zm-3.226 11.633a33.039 33.039 0 011.89-3.952 1.123 1.123 0 011.957 1.098 30.901 30.901 0 00-1.76 3.682 1.123 1.123 0 11-2.087-.828zm.024 3.354c.603.143.976.745.836 1.348a25.635 25.635 0 00-.618 4.003 1.123 1.123 0 01-1.122 1.042h-.083a1.122 1.122 0 01-1.039-1.201c.109-1.468.334-2.924.674-4.356a1.123 1.123 0 011.352-.836zm.674 13.512a1.123 1.123 0 01-2.21.394 36.027 36.027 0 01-.494-4.34 1.124 1.124 0 012.245-.123c.071 1.365.224 2.723.46 4.07zm-9.536-31.324a1.122 1.122 0 011.572-.25 15.562 15.562 0 004.735 2.303 1.123 1.123 0 11-.634 2.153 17.77 17.77 0 01-5.417-2.638 1.123 1.123 0 01-.255-1.568zm-6.705 1.41a2.245 2.245 0 11-4.49 0 2.245 2.245 0 014.49 0zm-17.505.642a15.536 15.536 0 004.738-2.302 1.123 1.123 0 011.316 1.82 17.813 17.813 0 01-5.42 2.636 1.123 1.123 0 11-.634-2.154zm-1.2 16.62a27.976 27.976 0 01.67 4.358 1.123 1.123 0 01-1.037 1.202h-.084a1.123 1.123 0 01-1.122-1.042 25.636 25.636 0 00-.614-4.005 1.123 1.123 0 112.188-.512zm.676 8.733a36.04 36.04 0 01-.497 4.34 1.123 1.123 0 01-2.21-.396c.238-1.346.393-2.704.466-4.069a1.135 1.135 0 011.184-1.058 1.123 1.123 0 011.057 1.183zm-6.5-19.002a1.122 1.122 0 01-1.572-.245 35.552 35.552 0 00-1.333-1.714 1.123 1.123 0 010-1.434L6.38 13.63c.23-.276.578-.425.937-.402.578.04 1.146.059 1.7.059h.45a1.123 1.123 0 01.039 2.245h-.492c-.306 0-.617-.005-.93-.016a.7.7 0 00-.563.25.7.7 0 00-.016.873c.161.21.324.428.487.651a1.123 1.123 0 01-.24 1.57zm.66 3.224a1.123 1.123 0 011.96-1.096 33.229 33.229 0 011.887 3.954 1.123 1.123 0 01-2.088.827 30.939 30.939 0 00-1.759-3.685zM9.82 58.402c-.747.197-1.448.405-2.094.613a1.123 1.123 0 01-1.325-.523l-1.71-3.077a1.123 1.123 0 01.263-1.408c.54-.45 1.051-.932 1.533-1.445A1.123 1.123 0 018.123 54.1c-.15.16-.303.318-.459.473-.328.326-.412.83-.187 1.235l.053.096c.228.41.71.605 1.162.48.182-.052.367-.102.554-.152a1.123 1.123 0 11.573 2.17zm.009-7.337a1.123 1.123 0 01-.962-1.69 20.641 20.641 0 001.668-3.645 1.123 1.123 0 112.12.738 22.862 22.862 0 01-1.851 4.042 1.123 1.123 0 01-.975.555zm7.275 6.192l-.001-.002a31.513 31.513 0 00-3.657.375 1.123 1.123 0 01-.356-2.217 33.8 33.8 0 013.922-.4 1.123 1.123 0 11.092 2.244zm8.577.026v.001a1.123 1.123 0 01-1.393.763 20.419 20.419 0 00-3.54-.686 1.123 1.123 0 01.235-2.233 22.74 22.74 0 013.93.763 1.123 1.123 0 01.768 1.392zm-.648-49.592a1.123 1.123 0 11-1.853-1.267 16.53 16.53 0 001.07-1.804 1.123 1.123 0 011-.611h2.245a1.123 1.123 0 010 2.245h-.986a1.03 1.03 0 00-.88.506c-.19.318-.39.629-.597.931zm7.44 51.697c-.617.33-1.212.7-1.78 1.108-.392.28-.919.28-1.31 0a15.923 15.923 0 00-1.78-1.108 1.123 1.123 0 011.056-1.981c.28.15.555.306.827.47a1.07 1.07 0 001.104 0c.272-.162.547-.319.826-.47a1.123 1.123 0 011.057 1.982zm.106-53.134a1.123 1.123 0 110-2.245h2.246c.421 0 .807.236 1 .61a16.38 16.38 0 001.07 1.805 1.123 1.123 0 01-1.852 1.267 18.17 18.17 0 01-.597-.93 1.032 1.032 0 00-.88-.507h-.986zm6.757 51.107a20.42 20.42 0 00-3.542.685 1.123 1.123 0 11-.628-2.157 22.74 22.74 0 013.93-.761 1.123 1.123 0 11.235 2.233h.005zm7.48.284c-.06 0-.12-.005-.18-.015a31.622 31.622 0 00-3.657-.375 1.123 1.123 0 01-1.075-1.167 1.155 1.155 0 011.167-1.076c1.314.057 2.623.192 3.92.402a1.123 1.123 0 01-.176 2.23zm.599-11.205a1.123 1.123 0 112.12-.734 20.618 20.618 0 001.665 3.645 1.123 1.123 0 11-1.938 1.134 22.722 22.722 0 01-1.847-4.045zm7.97 8.973v.001l-1.709 3.076a1.123 1.123 0 01-1.325.523 41.642 41.642 0 00-2.093-.612 1.123 1.123 0 11.572-2.17c.188.049.372.099.554.15.452.125.935-.07 1.163-.48l.053-.096a1.035 1.035 0 00-.187-1.234 18.595 18.595 0 01-.459-.473 1.123 1.123 0 111.637-1.537c.481.512.993.995 1.532 1.445a1.123 1.123 0 01.262 1.407z" fill="#fff"/></svg>