<svg width="50" height="58" fill="none" xmlns="http://www.w3.org/2000/svg"><path d="M32.262.775a7.415 7.415 0 00-7.415 7.415 7.415 7.415 0 00-14.828-.163.943.943 0 00.05.317l2.192 6.577a1 1 0 00.949.684h23.274a1 1 0 00.949-.684l2.192-6.577a.94.94 0 00.05-.317A7.415 7.415 0 0032.262.775zm4.943 19.538a1 1 0 00-1-1H13.489a1 1 0 00-1 1v2.943a1 1 0 001 1h22.716a1 1 0 001-1v-2.944zm.261 8.251a1 1 0 00-.917-.6H13.145a1 1 0 00-.918.6L.74 54.988c-.287.66.2 1.397.917 1.466 2.677.258 3.177 1.168 6.713 1.168 4.12 0 4.12-1.235 8.239-1.235 4.119 0 4.119 1.235 8.238 1.235 4.12 0 4.12-1.235 8.239-1.235 4.12 0 4.12 1.235 8.239 1.235 3.536 0 4.037-.91 6.714-1.168.717-.07 1.204-.806.917-1.466l-11.49-26.424z" id="Vector" fill="#fff"/></svg>