<svg width="121" height="12" fill="none" xmlns="http://www.w3.org/2000/svg"><path fill-rule="evenodd" clip-rule="evenodd" d="M5.776 8.655l.619-1.967L7.76 7.963a.934.934 0 010 1.384l-1.984 1.854-1.984-1.854a.934.934 0 010-1.384l1.984-1.854v2.546zm2.432-4.818L6.539 5.6l1.669 1.764a.847.847 0 001.245 0L11.122 5.6 9.453 3.837a.847.847 0 00-1.245 0zM6.539 5.6h2.292l-1.77-.55-.522.55zm-.763-.509L7.76 3.237a.933.933 0 000-1.384L5.776 0 3.792 1.854a.933.933 0 000 1.384l1.364 1.275.62-1.967V5.09zm-.765.509L3.344 3.838a.848.848 0 00-1.246 0L.43 5.6l1.668 1.763a.848.848 0 001.246 0L4.52 6.12l-.029.031-1.77-.55h2.29z" fill="#000"/><path d="M8.208 7.364L6.539 5.6h4.583L9.453 7.364a.847.847 0 01-1.245 0zm-6.11-3.527L.43 5.6h4.58L3.344 3.837a.848.848 0 00-1.246 0z" fill="#000"/><path fill-rule="evenodd" clip-rule="evenodd" d="M21.467 8.655l.62-1.967 1.364 1.275a.934.934 0 010 1.384l-1.984 1.854-1.984-1.854a.934.934 0 010-1.384l1.984-1.854v2.546zM23.9 3.837L22.23 5.6l1.67 1.764a.847.847 0 001.246 0L26.813 5.6l-1.668-1.763a.847.847 0 00-1.246 0zM22.23 5.6h2.292l-1.77-.55-.522.55zm-.763-.509l1.984-1.854a.933.933 0 000-1.384L21.467 0l-1.984 1.854a.933.933 0 000 1.384l1.365 1.275.62-1.967V5.09zm-.764.509l-1.667-1.763a.848.848 0 00-1.246 0L16.122 5.6l1.668 1.763a.848.848 0 001.245 0l1.177-1.244-.03.031-1.769-.55h2.29z" fill="#000"/><path d="M23.9 7.364L22.23 5.6h4.582l-1.668 1.764a.847.847 0 01-1.246 0zm-6.11-3.527L16.122 5.6h4.581l-1.667-1.764a.848.848 0 00-1.246 0z" fill="#000"/><path fill-rule="evenodd" clip-rule="evenodd" d="M37.159 8.655l.619-1.967 1.365 1.275a.934.934 0 010 1.384l-1.984 1.854-1.984-1.854a.934.934 0 010-1.384l1.984-1.854v2.546zm2.432-4.818L37.923 5.6l1.668 1.764a.847.847 0 001.246 0L42.505 5.6l-1.668-1.763a.847.847 0 00-1.246 0zM37.923 5.6h2.291l-1.77-.55-.521.55zm-.764-.509l1.984-1.854a.933.933 0 000-1.384L37.159 0l-1.984 1.854a.933.933 0 000 1.384l1.364 1.275.62-1.967V5.09zm-.764.509l-1.668-1.763a.848.848 0 00-1.245 0L31.812 5.6l1.668 1.763a.848.848 0 001.246 0l1.177-1.244-.03.031-1.77-.55h2.29z" fill="#000"/><path d="M39.591 7.364L37.923 5.6h4.582l-1.668 1.764a.847.847 0 01-1.246 0zm-6.11-3.527L31.813 5.6h4.582l-1.668-1.764a.848.848 0 00-1.245 0z" fill="#000"/><path fill-rule="evenodd" clip-rule="evenodd" d="M52.85 8.655l.62-1.967 1.365 1.275a.934.934 0 010 1.384l-1.984 1.854-1.984-1.854a.934.934 0 010-1.384l1.984-1.854v2.546zm2.433-4.818L53.614 5.6l1.669 1.764a.847.847 0 001.245 0L58.197 5.6l-1.669-1.763a.847.847 0 00-1.245 0zM53.614 5.6h2.292l-1.77-.55-.522.55zm-.764-.509l1.985-1.854a.933.933 0 000-1.384L52.85 0l-1.984 1.854a.933.933 0 000 1.384l1.364 1.275.62-1.967V5.09zm-.764.509L50.42 3.838a.848.848 0 00-1.246 0L47.505 5.6l1.668 1.763a.848.848 0 001.246 0l1.176-1.244-.029.031-1.77-.55h2.29z" fill="#000"/><path d="M55.283 7.364L53.614 5.6h4.583l-1.669 1.764a.847.847 0 01-1.245 0zm-6.11-3.527L47.505 5.6h4.581L50.42 3.837a.848.848 0 00-1.246 0z" fill="#000"/><path fill-rule="evenodd" clip-rule="evenodd" d="M68.542 8.655l.62-1.967 1.364 1.275a.934.934 0 010 1.384l-1.984 1.854-1.984-1.854a.934.934 0 010-1.384l1.984-1.854v2.546zm2.432-4.818L69.306 5.6l1.668 1.764a.847.847 0 001.246 0L73.888 5.6 72.22 3.837a.847.847 0 00-1.246 0zM69.306 5.6h2.292l-1.77-.55-.522.55zm-.764-.509l1.984-1.854a.933.933 0 000-1.384L68.542 0l-1.984 1.854a.933.933 0 000 1.384l1.365 1.275.62-1.967V5.09zm-.764.509l-1.667-1.763a.848.848 0 00-1.246 0L63.197 5.6l1.668 1.763a.848.848 0 001.245 0l1.177-1.244-.03.031-1.769-.55h2.29z" fill="#000"/><path d="M70.974 7.364L69.306 5.6h4.582L72.22 7.364a.847.847 0 01-1.246 0zm-6.109-3.527L63.197 5.6h4.581l-1.667-1.764a.848.848 0 00-1.246 0z" fill="#000"/><path fill-rule="evenodd" clip-rule="evenodd" d="M84.234 8.655l.619-1.967 1.365 1.275a.934.934 0 010 1.384l-1.984 1.854-1.984-1.854a.934.934 0 010-1.384l1.984-1.854v2.546zm2.432-4.818L84.998 5.6l1.668 1.764a.847.847 0 001.246 0L89.58 5.6l-1.668-1.763a.847.847 0 00-1.246 0zM84.998 5.6h2.291l-1.77-.55-.521.55zm-.764-.509l1.984-1.854a.933.933 0 000-1.384L84.234 0 82.25 1.854a.933.933 0 000 1.384l1.364 1.275.62-1.967V5.09zm-.764.509l-1.668-1.763a.848.848 0 00-1.246 0L78.888 5.6l1.668 1.763a.848.848 0 001.246 0l1.176-1.244-.029.031-1.77-.55h2.29z" fill="#000"/><path d="M86.666 7.364L84.998 5.6h4.582l-1.668 1.764a.847.847 0 01-1.246 0zm-6.11-3.527L78.888 5.6h4.582l-1.668-1.764a.848.848 0 00-1.246 0z" fill="#000"/><path fill-rule="evenodd" clip-rule="evenodd" d="M99.926 8.655l.619-1.967 1.365 1.275a.934.934 0 010 1.384l-1.984 1.854-1.984-1.854a.934.934 0 010-1.384l1.984-1.854v2.546zm2.432-4.818L100.69 5.6l1.668 1.764a.848.848 0 001.246 0l1.668-1.764-1.668-1.763a.848.848 0 00-1.246 0zM100.69 5.6h2.291l-1.77-.55-.521.55zm-.764-.509l1.984-1.854a.934.934 0 000-1.384L99.926 0l-1.984 1.854a.933.933 0 000 1.384l1.364 1.275.62-1.967V5.09zm-.764.509l-1.668-1.763a.848.848 0 00-1.246 0L94.58 5.6l1.668 1.763a.848.848 0 001.246 0L98.67 6.12l-.029.031-1.77-.55h2.29z" fill="#000"/><path d="M102.358 7.364L100.69 5.6h4.582l-1.668 1.764a.848.848 0 01-1.246 0zm-6.11-3.527L94.58 5.6h4.582l-1.668-1.764a.848.848 0 00-1.246 0z" fill="#000"/><path fill-rule="evenodd" clip-rule="evenodd" d="M115.617 8.655l.619-1.967 1.366 1.275a.934.934 0 010 1.384l-1.985 1.854-1.984-1.854a.934.934 0 010-1.384l1.984-1.854v2.546zm2.432-4.818L116.381 5.6l1.668 1.764a.848.848 0 001.246 0l1.668-1.764-1.668-1.763a.848.848 0 00-1.246 0zM116.381 5.6h2.292l-1.771-.55-.521.55zm-.764-.509l1.985-1.854a.934.934 0 000-1.384L115.617 0l-1.984 1.854a.934.934 0 000 1.384l1.365 1.275.619-1.967V5.09zm-.764.509l-1.667-1.763a.848.848 0 00-1.246 0L110.272 5.6l1.668 1.763a.848.848 0 001.246 0l1.176-1.244-.029.031-1.77-.55h2.29z" fill="#fff"/><path d="M118.049 7.364L116.381 5.6h4.582l-1.668 1.764a.848.848 0 01-1.246 0zm-6.109-3.527L110.272 5.6h4.581l-1.667-1.764a.848.848 0 00-1.246 0z" fill="#fff"/></svg>