<svg width="122" height="12" fill="none" xmlns="http://www.w3.org/2000/svg"><path fill-rule="evenodd" clip-rule="evenodd" d="M6.015 8.655l.619-1.967 1.365 1.275a.934.934 0 010 1.384l-1.984 1.854L4.03 9.347a.934.934 0 010-1.384l1.984-1.854v2.546zm2.432-4.818L6.779 5.6l1.668 1.764a.847.847 0 001.246 0L11.36 5.6 9.693 3.837a.847.847 0 00-1.246 0zM6.779 5.6H9.07L7.3 5.05l-.521.55zm-.764-.509l1.984-1.854a.933.933 0 000-1.384L6.015 0 4.03 1.854a.933.933 0 000 1.384l1.364 1.275.62-1.967V5.09zM5.25 5.6L3.584 3.838a.848.848 0 00-1.246 0L.67 5.6l1.668 1.763a.848.848 0 001.246 0L4.759 6.12l-.029.031-1.77-.55h2.29z" fill="#000"/><path d="M8.447 7.364L6.779 5.6h4.582L9.693 7.364a.847.847 0 01-1.246 0zm-6.11-3.527L.67 5.6h4.582L3.583 3.837a.848.848 0 00-1.246 0z" fill="#000"/><path fill-rule="evenodd" clip-rule="evenodd" d="M21.707 8.655l.619-1.967 1.365 1.275a.934.934 0 010 1.384l-1.984 1.854-1.984-1.854a.934.934 0 010-1.384l1.984-1.854v2.546zm2.432-4.818L22.47 5.6l1.669 1.764a.847.847 0 001.245 0L27.052 5.6l-1.668-1.763a.847.847 0 00-1.245 0zM22.47 5.6h2.292l-1.77-.55-.522.55zm-.764-.509l1.985-1.854a.933.933 0 000-1.384L21.707 0l-1.984 1.854a.933.933 0 000 1.384l1.364 1.275.62-1.967V5.09zm-.764.509l-1.667-1.763a.848.848 0 00-1.246 0L16.361 5.6l1.668 1.763a.848.848 0 001.246 0L20.45 6.12l-.029.031-1.77-.55h2.29z" fill="#000"/><path d="M24.139 7.364L22.47 5.6h4.582l-1.668 1.764a.847.847 0 01-1.245 0zM18.03 3.837L16.36 5.6h4.582l-1.667-1.764a.848.848 0 00-1.246 0z" fill="#000"/><path fill-rule="evenodd" clip-rule="evenodd" d="M37.398 8.655l.62-1.967 1.364 1.275a.934.934 0 010 1.384l-1.984 1.854-1.984-1.854a.934.934 0 010-1.384l1.984-1.854v2.546zm2.432-4.818L38.162 5.6l1.668 1.764a.847.847 0 001.246 0L42.744 5.6l-1.668-1.763a.847.847 0 00-1.246 0zM38.162 5.6h2.292l-1.771-.55-.521.55zm-.764-.509l1.984-1.854a.933.933 0 000-1.384L37.398 0l-1.984 1.854a.933.933 0 000 1.384l1.365 1.275.62-1.967V5.09zm-.764.509l-1.667-1.763a.848.848 0 00-1.246 0L32.053 5.6l1.667 1.763a.848.848 0 001.246 0l1.177-1.244-.03.031-1.769-.55h2.29z" fill="#000"/><path d="M39.83 7.364L38.162 5.6h4.582l-1.668 1.764a.847.847 0 01-1.246 0zm-6.11-3.527L32.054 5.6h4.581l-1.667-1.764a.848.848 0 00-1.246 0z" fill="#000"/><path fill-rule="evenodd" clip-rule="evenodd" d="M53.09 8.655l.619-1.967 1.365 1.275a.934.934 0 010 1.384l-1.984 1.854-1.984-1.854a.934.934 0 010-1.384l1.984-1.854v2.546zm2.432-4.818L53.854 5.6l1.668 1.764a.847.847 0 001.246 0L58.436 5.6l-1.668-1.763a.847.847 0 00-1.246 0zM53.854 5.6h2.291l-1.77-.55-.521.55zm-.764-.509l1.984-1.854a.933.933 0 000-1.384L53.09 0l-1.984 1.854a.933.933 0 000 1.384l1.364 1.275.62-1.967V5.09zm-.764.509l-1.668-1.763a.848.848 0 00-1.246 0L47.744 5.6l1.668 1.763a.848.848 0 001.246 0l1.176-1.244-.029.031-1.77-.55h2.29z" fill="#000"/><path d="M55.522 7.364L53.854 5.6h4.582l-1.668 1.764a.847.847 0 01-1.246 0zm-6.11-3.527L47.744 5.6h4.582l-1.668-1.764a.848.848 0 00-1.246 0z" fill="#000"/><path fill-rule="evenodd" clip-rule="evenodd" d="M68.781 8.655l.62-1.967 1.365 1.275a.934.934 0 010 1.384l-1.985 1.854-1.984-1.854a.934.934 0 010-1.384l1.984-1.854v2.546zm2.432-4.818L69.545 5.6l1.668 1.764a.847.847 0 001.246 0L74.127 5.6 72.46 3.837a.847.847 0 00-1.246 0zM69.545 5.6h2.292l-1.77-.55-.522.55zm-.764-.509l1.985-1.854a.933.933 0 000-1.384L68.78 0l-1.984 1.854a.933.933 0 000 1.384l1.365 1.275.62-1.967V5.09zm-.764.509L66.35 3.838a.848.848 0 00-1.246 0L63.436 5.6l1.668 1.763a.848.848 0 001.246 0l1.176-1.244-.03.031-1.769-.55h2.29z" fill="#000"/><path d="M71.213 7.364L69.545 5.6h4.582L72.46 7.364a.847.847 0 01-1.246 0zm-6.109-3.527L63.436 5.6h4.581L66.35 3.837a.848.848 0 00-1.246 0z" fill="#000"/><path fill-rule="evenodd" clip-rule="evenodd" d="M84.473 8.655l.62-1.967 1.364 1.275a.934.934 0 010 1.384l-1.984 1.854-1.984-1.854a.934.934 0 010-1.384l1.984-1.854v2.546zm2.432-4.818L85.237 5.6l1.668 1.764a.847.847 0 001.246 0L89.819 5.6l-1.668-1.763a.847.847 0 00-1.246 0zM85.237 5.6h2.292l-1.771-.55-.521.55zm-.764-.509l1.984-1.854a.933.933 0 000-1.384L84.473 0 82.49 1.854a.933.933 0 000 1.384l1.365 1.275.62-1.967V5.09zm-.764.509l-1.667-1.763a.848.848 0 00-1.246 0L79.127 5.6l1.668 1.763a.848.848 0 001.246 0l1.177-1.244-.03.031-1.77-.55h2.29z" fill="#000"/><path d="M86.905 7.364L85.237 5.6h4.582l-1.668 1.764a.847.847 0 01-1.246 0zm-6.109-3.527L79.127 5.6h4.582l-1.667-1.764a.848.848 0 00-1.246 0z" fill="#000"/><path fill-rule="evenodd" clip-rule="evenodd" d="M100.165 8.655l.619-1.967 1.365 1.275a.934.934 0 010 1.384l-1.984 1.854-1.984-1.854a.934.934 0 010-1.384l1.984-1.854v2.546zm2.432-4.818L100.929 5.6l1.668 1.764a.848.848 0 001.246 0l1.668-1.764-1.668-1.763a.848.848 0 00-1.246 0zM100.929 5.6h2.291l-1.77-.55-.521.55zm-.764-.509l1.984-1.854a.934.934 0 000-1.384L100.165 0l-1.984 1.854a.933.933 0 000 1.384l1.365 1.275.619-1.967V5.09zM99.4 5.6l-1.666-1.763a.848.848 0 00-1.246 0L94.819 5.6l1.668 1.763a.848.848 0 001.246 0L98.91 6.12l-.03.031-1.77-.55h2.29z" fill="#000"/><path d="M102.597 7.364L100.929 5.6h4.582l-1.668 1.764a.848.848 0 01-1.246 0zm-6.109-3.527L94.819 5.6h4.582l-1.667-1.764a.848.848 0 00-1.246 0z" fill="#000"/><path fill-rule="evenodd" clip-rule="evenodd" d="M115.857 8.655l.619-1.967 1.365 1.275a.934.934 0 010 1.384l-1.984 1.854-1.984-1.854a.933.933 0 010-1.384l1.984-1.854v2.546zm2.432-4.818L116.621 5.6l1.668 1.764a.846.846 0 001.245 0l1.669-1.764-1.669-1.763a.846.846 0 00-1.245 0zM116.621 5.6h2.291l-1.77-.55-.521.55zm-.764-.509l1.984-1.854a.934.934 0 000-1.384L115.857 0l-1.984 1.854a.932.932 0 000 1.384l1.364 1.275.62-1.967V5.09zm-.765.509l-1.667-1.763a.848.848 0 00-1.246 0L110.511 5.6l1.668 1.763a.848.848 0 001.246 0l1.176-1.244-.029.031-1.77-.55h2.29z" fill="#000"/><path d="M118.289 7.364L116.621 5.6h4.582l-1.669 1.764a.846.846 0 01-1.245 0zm-6.11-3.527L110.511 5.6h4.581l-1.667-1.764a.848.848 0 00-1.246 0z" fill="#000"/></svg>