<svg width="122" height="12" fill="none" xmlns="http://www.w3.org/2000/svg"><path fill-rule="evenodd" clip-rule="evenodd" d="M6.226 8.655l.62-1.967L8.21 7.963a.934.934 0 010 1.384l-1.984 1.854-1.984-1.854a.934.934 0 010-1.384l1.984-1.854v2.546zm2.432-4.818L6.99 5.6l1.668 1.764a.847.847 0 001.246 0L11.572 5.6 9.904 3.837a.847.847 0 00-1.246 0zM6.99 5.6h2.292L7.51 5.05l-.521.55zm-.764-.509L8.21 3.237a.933.933 0 000-1.384L6.226 0 4.242 1.854a.933.933 0 000 1.384l1.365 1.275.62-1.967V5.09zm-.764.509L3.795 3.838a.848.848 0 00-1.246 0L.88 5.6l1.668 1.763a.848.848 0 001.246 0L4.971 6.12l-.03.031-1.77-.55h2.29z" fill="#000"/><path d="M8.658 7.364L6.99 5.6h4.582L9.904 7.364a.847.847 0 01-1.246 0zM2.549 3.837L.88 5.6h4.582L3.795 3.837a.848.848 0 00-1.246 0z" fill="#000"/><path fill-rule="evenodd" clip-rule="evenodd" d="M21.918 8.655l.619-1.967 1.365 1.275a.934.934 0 010 1.384l-1.984 1.854-1.984-1.854a.934.934 0 010-1.384l1.984-1.854v2.546zm2.432-4.818L22.682 5.6l1.668 1.764a.847.847 0 001.245 0l1.67-1.764-1.668-1.763a.847.847 0 00-1.246 0zM22.682 5.6h2.291l-1.77-.55-.521.55zm-.764-.509l1.984-1.854a.933.933 0 000-1.384L21.918 0l-1.984 1.854a.933.933 0 000 1.384l1.364 1.275.62-1.967V5.09zm-.764.509l-1.668-1.763a.848.848 0 00-1.246 0L16.572 5.6l1.668 1.763a.848.848 0 001.246 0l1.176-1.244-.029.031-1.77-.55h2.29z" fill="#000"/><path d="M24.35 7.364L22.682 5.6h4.582l-1.668 1.764a.847.847 0 01-1.246 0zm-6.11-3.527L16.572 5.6h4.582l-1.668-1.764a.848.848 0 00-1.246 0z" fill="#000"/><path fill-rule="evenodd" clip-rule="evenodd" d="M37.61 8.655l.618-1.967 1.365 1.275a.934.934 0 010 1.384l-1.984 1.854-1.984-1.854a.934.934 0 010-1.384l1.984-1.854v2.546zm2.431-4.818L38.373 5.6l1.668 1.764a.847.847 0 001.246 0L42.955 5.6l-1.668-1.763a.847.847 0 00-1.246 0zM38.373 5.6h2.292l-1.77-.55-.522.55zm-.763-.509l1.983-1.854a.933.933 0 000-1.384L37.61 0l-1.984 1.854a.933.933 0 000 1.384l1.365 1.275.62-1.967V5.09zm-.765.509l-1.667-1.763a.848.848 0 00-1.246 0L32.264 5.6l1.668 1.763a.848.848 0 001.245 0l1.177-1.244-.03.031-1.769-.55h2.29z" fill="#000"/><path d="M40.041 7.364L38.373 5.6h4.582l-1.668 1.764a.847.847 0 01-1.246 0zm-6.109-3.527L32.264 5.6h4.581l-1.667-1.764a.848.848 0 00-1.246 0z" fill="#000"/><path fill-rule="evenodd" clip-rule="evenodd" d="M53.301 8.655l.619-1.967 1.365 1.275a.934.934 0 010 1.384l-1.984 1.854-1.984-1.854a.934.934 0 010-1.384l1.984-1.854v2.546zm2.432-4.818L54.065 5.6l1.668 1.764a.847.847 0 001.246 0L58.647 5.6l-1.668-1.763a.847.847 0 00-1.246 0zM54.065 5.6h2.291l-1.77-.55-.521.55zm-.764-.509l1.984-1.854a.933.933 0 000-1.384L53.301 0l-1.984 1.854a.933.933 0 000 1.384l1.364 1.275.62-1.967V5.09zm-.764.509L50.87 3.838a.848.848 0 00-1.246 0L47.955 5.6l1.668 1.763a.848.848 0 001.246 0l1.177-1.244-.03.031-1.77-.55h2.29z" fill="#000"/><path d="M55.733 7.364L54.065 5.6h4.582l-1.668 1.764a.847.847 0 01-1.246 0zm-6.109-3.527L47.955 5.6h4.582L50.87 3.837a.848.848 0 00-1.246 0z" fill="#000"/><path fill-rule="evenodd" clip-rule="evenodd" d="M68.993 8.655l.619-1.967 1.365 1.275a.934.934 0 010 1.384l-1.984 1.854-1.984-1.854a.934.934 0 010-1.384l1.984-1.854v2.546zm2.432-4.818L69.757 5.6l1.668 1.764a.847.847 0 001.246 0L74.339 5.6 72.67 3.837a.847.847 0 00-1.246 0zM69.757 5.6h2.291l-1.77-.55-.521.55zm-.764-.509l1.984-1.854a.933.933 0 000-1.384L68.993 0l-1.984 1.854a.933.933 0 000 1.384l1.364 1.275.62-1.967V5.09zm-.764.509L66.56 3.838a.848.848 0 00-1.246 0L63.647 5.6l1.668 1.763a.848.848 0 001.246 0l1.176-1.244-.029.031-1.77-.55h2.29z" fill="#000"/><path d="M71.425 7.364L69.757 5.6h4.582L72.67 7.364a.847.847 0 01-1.246 0zm-6.11-3.527L63.647 5.6h4.582L66.56 3.837a.848.848 0 00-1.246 0z" fill="#000"/><path fill-rule="evenodd" clip-rule="evenodd" d="M84.684 8.655l.62-1.967 1.364 1.275a.934.934 0 010 1.384l-1.984 1.854-1.983-1.854a.934.934 0 010-1.384l1.984-1.854v2.546zm2.433-4.818L85.448 5.6l1.669 1.764a.847.847 0 001.245 0L90.03 5.6l-1.668-1.763a.847.847 0 00-1.245 0zM85.448 5.6h2.292l-1.77-.55-.522.55zm-.764-.509l1.984-1.854a.933.933 0 000-1.384L84.684 0l-1.983 1.854a.933.933 0 000 1.384l1.364 1.275.62-1.967V5.09zm-.764.509l-1.667-1.763a.848.848 0 00-1.246 0L79.34 5.6l1.668 1.763a.848.848 0 001.246 0l1.176-1.244-.03.031-1.769-.55h2.29z" fill="#000"/><path d="M87.117 7.364L85.448 5.6h4.582l-1.668 1.764a.847.847 0 01-1.245 0zm-6.11-3.527L79.34 5.6h4.581l-1.667-1.764a.848.848 0 00-1.246 0z" fill="#000"/><path fill-rule="evenodd" clip-rule="evenodd" d="M100.376 8.655l.619-1.967 1.365 1.275a.933.933 0 010 1.384l-1.984 1.854-1.984-1.854a.934.934 0 010-1.384l1.984-1.854v2.546zm2.432-4.818L101.14 5.6l1.668 1.764a.848.848 0 001.246 0l1.668-1.764-1.668-1.763a.848.848 0 00-1.246 0zM101.14 5.6h2.292l-1.771-.55-.521.55zm-.764-.509l1.984-1.854a.932.932 0 000-1.384L100.376 0l-1.984 1.854a.933.933 0 000 1.384l1.365 1.275.619-1.967V5.09zm-.764.509l-1.667-1.763a.848.848 0 00-1.246 0L95.03 5.6l1.668 1.763a.848.848 0 001.246 0l1.177-1.244-.03.031-1.77-.55h2.29z" fill="#fff"/><path d="M102.808 7.364L101.14 5.6h4.582l-1.668 1.764a.848.848 0 01-1.246 0zm-6.109-3.527L95.03 5.6h4.582l-1.667-1.764a.848.848 0 00-1.246 0z" fill="#fff"/><path fill-rule="evenodd" clip-rule="evenodd" d="M116.068 8.655l.619-1.967 1.365 1.275a.934.934 0 010 1.384l-1.984 1.854-1.984-1.854a.933.933 0 010-1.384l1.984-1.854v2.546zm2.432-4.818L116.832 5.6l1.668 1.764a.848.848 0 001.246 0l1.668-1.764-1.668-1.763a.848.848 0 00-1.246 0zM116.832 5.6h2.291l-1.77-.55-.521.55zm-.764-.509l1.984-1.854a.934.934 0 000-1.384L116.068 0l-1.984 1.854a.932.932 0 000 1.384l1.364 1.275.62-1.967V5.09zm-.764.509l-1.668-1.763a.848.848 0 00-1.246 0L110.722 5.6l1.668 1.763a.848.848 0 001.246 0l1.176-1.244-.029.031-1.769-.55h2.29z" fill="#fff"/><path d="M118.5 7.364L116.832 5.6h4.582l-1.668 1.764a.848.848 0 01-1.246 0zm-6.11-3.527L110.722 5.6h4.582l-1.668-1.764a.848.848 0 00-1.246 0z" fill="#fff"/></svg>