<svg width="121" height="12" fill="none" xmlns="http://www.w3.org/2000/svg"><path fill-rule="evenodd" clip-rule="evenodd" d="M5.428 8.655l.619-1.967 1.365 1.275a.934.934 0 010 1.384l-1.984 1.854-1.984-1.854a.934.934 0 010-1.384l1.984-1.854v2.546zM7.86 3.837L6.19 5.6l1.67 1.764a.847.847 0 001.245 0L10.773 5.6 9.106 3.837a.847.847 0 00-1.245 0zM6.19 5.6h2.292l-1.77-.55-.522.55zm-.763-.509l1.985-1.854a.933.933 0 000-1.384L5.428 0 3.444 1.854a.933.933 0 000 1.384l1.364 1.275.62-1.967V5.09zm-.764.509L2.996 3.838a.848.848 0 00-1.246 0L.082 5.6 1.75 7.364a.848.848 0 001.246 0L4.172 6.12l-.03.031-1.769-.55h2.29z" fill="#000"/><path d="M7.86 7.364L6.19 5.6h4.583L9.104 7.364a.847.847 0 01-1.245 0zM1.75 3.837L.082 5.6h4.581L2.996 3.837a.848.848 0 00-1.246 0z" fill="#000"/><path fill-rule="evenodd" clip-rule="evenodd" d="M21.12 8.655l.618-1.967 1.365 1.275a.934.934 0 010 1.384l-1.984 1.854-1.984-1.854a.934.934 0 010-1.384l1.984-1.854v2.546zm2.431-4.818L21.883 5.6l1.668 1.764a.847.847 0 001.246 0L26.465 5.6l-1.668-1.763a.847.847 0 00-1.246 0zM21.883 5.6h2.292l-1.771-.55-.521.55zm-.763-.509l1.983-1.854a.933.933 0 000-1.384L21.12 0l-1.984 1.854a.933.933 0 000 1.384L20.5 4.513l.62-1.967V5.09zm-.765.509l-1.667-1.763a.848.848 0 00-1.246 0L15.773 5.6l1.668 1.763a.848.848 0 001.246 0l1.177-1.244-.03.031-1.77-.55h2.29z" fill="#000"/><path d="M23.551 7.364L21.883 5.6h4.582l-1.668 1.764a.847.847 0 01-1.246 0zm-6.109-3.527L15.773 5.6h4.582l-1.667-1.764a.848.848 0 00-1.246 0z" fill="#000"/><path fill-rule="evenodd" clip-rule="evenodd" d="M36.81 8.655l.62-1.967 1.365 1.275a.934.934 0 010 1.384l-1.984 1.854-1.984-1.854a.934.934 0 010-1.384l1.984-1.854v2.546zm2.433-4.818L37.575 5.6l1.668 1.764a.847.847 0 001.246 0L42.157 5.6l-1.668-1.763a.847.847 0 00-1.246 0zM37.575 5.6h2.291l-1.77-.55-.521.55zm-.765-.509l1.985-1.854a.933.933 0 000-1.384L36.81 0l-1.984 1.854a.933.933 0 000 1.384l1.364 1.275.62-1.967V5.09zm-.763.509l-1.668-1.763a.848.848 0 00-1.246 0L31.465 5.6l1.668 1.763a.848.848 0 001.246 0l1.176-1.244-.029.031-1.77-.55h2.29z" fill="#fff"/><path d="M39.243 7.364L37.575 5.6h4.582l-1.668 1.764a.847.847 0 01-1.246 0zm-6.11-3.527L31.465 5.6h4.582l-1.668-1.764a.848.848 0 00-1.246 0z" fill="#fff"/><path fill-rule="evenodd" clip-rule="evenodd" d="M52.502 8.655l.62-1.967 1.364 1.275a.934.934 0 010 1.384l-1.983 1.854-1.984-1.854a.934.934 0 010-1.384l1.983-1.854v2.546zm2.432-4.818L53.267 5.6l1.669 1.764a.847.847 0 001.245 0L57.848 5.6 56.18 3.837a.847.847 0 00-1.245 0zM53.267 5.6h2.292l-1.77-.55-.522.55zm-.765-.509l1.984-1.854a.933.933 0 000-1.384L52.504 0 50.52 1.854a.933.933 0 000 1.384l1.364 1.275.62-1.967V5.09zm-.764.509l-1.667-1.763a.848.848 0 00-1.246 0L47.157 5.6l1.668 1.763a.848.848 0 001.245 0l1.177-1.244-.03.031-1.769-.55h2.29z" fill="#fff"/><path d="M54.934 7.364L53.267 5.6h4.582L56.18 7.364a.847.847 0 01-1.245 0zm-6.109-3.527L47.157 5.6h4.581l-1.667-1.764a.848.848 0 00-1.246 0z" fill="#fff"/><path fill-rule="evenodd" clip-rule="evenodd" d="M68.194 8.655l.62-1.967 1.364 1.275a.934.934 0 010 1.384l-1.984 1.854-1.984-1.854a.934.934 0 010-1.384l1.984-1.854v2.546zm2.432-4.818L68.958 5.6l1.668 1.764a.847.847 0 001.246 0L73.54 5.6l-1.668-1.763a.847.847 0 00-1.246 0zM68.958 5.6h2.292l-1.77-.55-.522.55zm-.764-.509l1.984-1.854a.933.933 0 000-1.384L68.194 0 66.21 1.854a.933.933 0 000 1.384l1.365 1.275.62-1.967V5.09zm-.764.509l-1.667-1.763a.848.848 0 00-1.246 0L62.849 5.6l1.667 1.763a.848.848 0 001.246 0L66.94 6.12l-.03.031-1.769-.55h2.29z" fill="#fff"/><path d="M70.626 7.364L68.958 5.6h4.582l-1.668 1.764a.847.847 0 01-1.246 0zm-6.109-3.527L62.849 5.6h4.581l-1.667-1.764a.848.848 0 00-1.246 0z" fill="#fff"/><path fill-rule="evenodd" clip-rule="evenodd" d="M83.886 8.655l.619-1.967 1.365 1.275a.934.934 0 010 1.384l-1.984 1.854-1.984-1.854a.934.934 0 010-1.384l1.984-1.854v2.546zm2.432-4.818L84.65 5.6l1.668 1.764a.847.847 0 001.246 0L89.232 5.6l-1.668-1.763a.847.847 0 00-1.246 0zM84.65 5.6h2.291l-1.77-.55-.521.55zm-.764-.509l1.984-1.854a.933.933 0 000-1.384L83.886 0l-1.984 1.854a.933.933 0 000 1.384l1.364 1.275.62-1.967V5.09zm-.764.509l-1.668-1.763a.848.848 0 00-1.245 0L78.54 5.6l1.668 1.763a.848.848 0 001.246 0L82.63 6.12l-.029.031-1.77-.55h2.29z" fill="#fff"/><path d="M86.318 7.364L84.65 5.6h4.582l-1.668 1.764a.847.847 0 01-1.246 0zm-6.109-3.527L78.54 5.6h4.582l-1.668-1.764a.848.848 0 00-1.245 0z" fill="#fff"/><path fill-rule="evenodd" clip-rule="evenodd" d="M99.578 8.655l.619-1.967 1.365 1.275a.934.934 0 010 1.384l-1.984 1.854-1.984-1.854a.934.934 0 010-1.384l1.984-1.854v2.546zm2.432-4.818L100.341 5.6l1.669 1.764a.846.846 0 001.245 0l1.668-1.764-1.668-1.763a.846.846 0 00-1.245 0zM100.341 5.6h2.292l-1.771-.55-.521.55zm-.763-.509l1.984-1.854a.934.934 0 000-1.384L99.578 0l-1.984 1.854a.933.933 0 000 1.384l1.364 1.275.62-1.967V5.09zm-.765.509l-1.667-1.763a.848.848 0 00-1.246 0L94.232 5.6 95.9 7.364a.848.848 0 001.246 0l1.176-1.244-.03.031-1.769-.55h2.29z" fill="#fff"/><path d="M102.01 7.364L100.341 5.6h4.582l-1.668 1.764a.846.846 0 01-1.245 0zM95.9 3.837L94.232 5.6h4.581l-1.667-1.764a.848.848 0 00-1.246 0z" fill="#fff"/><path fill-rule="evenodd" clip-rule="evenodd" d="M115.269 8.655l.619-1.967 1.365 1.275a.933.933 0 010 1.384l-1.984 1.854-1.984-1.854a.934.934 0 010-1.384l1.984-1.854v2.546zm2.432-4.818L116.033 5.6l1.668 1.764a.848.848 0 001.246 0l1.668-1.764-1.668-1.763a.848.848 0 00-1.246 0zM116.033 5.6h2.292l-1.771-.55-.521.55zm-.764-.509l1.984-1.854a.932.932 0 000-1.384L115.269 0l-1.984 1.854a.934.934 0 000 1.384l1.365 1.275.619-1.967V5.09zm-.764.509l-1.667-1.763a.848.848 0 00-1.246 0L109.923 5.6l1.668 1.763a.848.848 0 001.246 0l1.177-1.244-.029.031-1.77-.55h2.29z" fill="#fff"/><path d="M117.701 7.364L116.033 5.6h4.582l-1.668 1.764a.848.848 0 01-1.246 0zm-6.109-3.527L109.923 5.6h4.582l-1.667-1.764a.848.848 0 00-1.246 0z" fill="#fff"/></svg>