<svg width="121" height="12" fill="none" xmlns="http://www.w3.org/2000/svg"><path fill-rule="evenodd" clip-rule="evenodd" d="M5.814 8.655l.618-1.967 1.366 1.275a.934.934 0 010 1.384l-1.984 1.854L3.83 9.347a.934.934 0 010-1.384l1.984-1.854v2.546zm2.431-4.818L6.577 5.6l1.668 1.764a.847.847 0 001.246 0L11.16 5.6 9.491 3.837a.847.847 0 00-1.245 0zM6.577 5.6H8.87L7.1 5.05l-.522.55zm-.764-.509l1.985-1.854a.933.933 0 000-1.384L5.814 0 3.83 1.854a.933.933 0 000 1.384l1.364 1.275.62-1.967V5.09zM5.05 5.6L3.381 3.838a.848.848 0 00-1.246 0L.468 5.6l1.668 1.763a.848.848 0 001.246 0L4.558 6.12l-.03.031-1.769-.55h2.29z" fill="#000"/><path d="M8.245 7.364L6.577 5.6h4.582L9.491 7.364a.847.847 0 01-1.245 0zM2.136 3.837L.468 5.6h4.581L3.382 3.837a.848.848 0 00-1.246 0z" fill="#000"/><path fill-rule="evenodd" clip-rule="evenodd" d="M21.505 8.655l.62-1.967 1.364 1.275a.934.934 0 010 1.384l-1.984 1.854-1.984-1.854a.934.934 0 010-1.384l1.984-1.854v2.546zm2.432-4.818L22.27 5.6l1.668 1.764a.847.847 0 001.246 0L26.85 5.6l-1.668-1.763a.847.847 0 00-1.246 0zM22.27 5.6h2.292l-1.771-.55-.521.55zm-.765-.509l1.984-1.854a.933.933 0 000-1.384L21.505 0l-1.984 1.854a.933.933 0 000 1.384l1.365 1.275.62-1.967V5.09zm-.765.509l-1.666-1.763a.848.848 0 00-1.246 0L16.159 5.6l1.668 1.763a.848.848 0 001.246 0L20.25 6.12l-.03.031-1.77-.55h2.29z" fill="#000"/><path d="M23.937 7.364L22.27 5.6h4.582l-1.668 1.764a.847.847 0 01-1.246 0zm-6.109-3.527L16.159 5.6h4.582l-1.667-1.764a.848.848 0 00-1.246 0z" fill="#000"/><path fill-rule="evenodd" clip-rule="evenodd" d="M37.197 8.655l.619-1.967 1.365 1.275a.934.934 0 010 1.384l-1.984 1.854-1.984-1.854a.934.934 0 010-1.384l1.984-1.854v2.546zm2.432-4.818L37.96 5.6l1.668 1.764a.847.847 0 001.246 0L42.543 5.6l-1.668-1.763a.847.847 0 00-1.246 0zM37.96 5.6h2.291l-1.77-.55-.521.55zm-.763-.509l1.984-1.854a.933.933 0 000-1.384L37.197 0l-1.984 1.854a.933.933 0 000 1.384l1.364 1.275.62-1.967V5.09zm-.764.509l-1.668-1.763a.848.848 0 00-1.246 0L31.851 5.6l1.668 1.763a.848.848 0 001.246 0L35.94 6.12l-.029.031-1.77-.55h2.29z" fill="#000"/><path d="M39.629 7.364L37.96 5.6h4.582l-1.668 1.764a.847.847 0 01-1.246 0zM33.52 3.837L31.85 5.6h4.582l-1.668-1.764a.848.848 0 00-1.246 0z" fill="#000"/><path fill-rule="evenodd" clip-rule="evenodd" d="M52.889 8.655l.618-1.967 1.366 1.275a.934.934 0 010 1.384l-1.984 1.854-1.985-1.854a.934.934 0 010-1.384l1.984-1.854v2.546zm2.431-4.818L53.653 5.6l1.669 1.764a.847.847 0 001.245 0L58.234 5.6l-1.668-1.763a.847.847 0 00-1.245 0zM53.653 5.6h2.292l-1.77-.55-.522.55zm-.765-.509l1.985-1.854a.933.933 0 000-1.384L52.889 0l-1.985 1.854a.933.933 0 000 1.384l1.365 1.275.62-1.967V5.09zm-.764.509l-1.667-1.763a.848.848 0 00-1.246 0L47.543 5.6l1.668 1.763a.848.848 0 001.245 0l1.177-1.244-.03.031-1.769-.55h2.29z" fill="#000"/><path d="M55.32 7.364L53.653 5.6h4.582l-1.668 1.764a.847.847 0 01-1.245 0zm-6.109-3.527L47.543 5.6h4.581l-1.667-1.764a.848.848 0 00-1.246 0z" fill="#000"/><path fill-rule="evenodd" clip-rule="evenodd" d="M68.58 8.655l.62-1.967 1.364 1.275a.934.934 0 010 1.384l-1.984 1.854-1.984-1.854a.934.934 0 010-1.384l1.984-1.854v2.546zm2.432-4.818L69.344 5.6l1.668 1.764a.847.847 0 001.246 0L73.926 5.6l-1.668-1.763a.847.847 0 00-1.246 0zM69.344 5.6h2.291l-1.77-.55-.521.55zm-.764-.509l1.984-1.854a.933.933 0 000-1.384L68.58 0l-1.984 1.854a.933.933 0 000 1.384l1.365 1.275.62-1.967V5.09zm-.764.509l-1.667-1.763a.848.848 0 00-1.246 0L63.234 5.6l1.668 1.763a.848.848 0 001.246 0l1.177-1.244-.03.031-1.77-.55h2.29z" fill="#fff"/><path d="M71.012 7.364L69.344 5.6h4.582l-1.668 1.764a.847.847 0 01-1.246 0zm-6.109-3.527L63.234 5.6h4.582l-1.667-1.764a.848.848 0 00-1.246 0z" fill="#fff"/><path fill-rule="evenodd" clip-rule="evenodd" d="M84.272 8.655l.619-1.967 1.365 1.275a.934.934 0 010 1.384l-1.984 1.854-1.984-1.854a.934.934 0 010-1.384l1.984-1.854v2.546zm2.432-4.818L85.036 5.6l1.668 1.764a.847.847 0 001.246 0L89.618 5.6 87.95 3.837a.847.847 0 00-1.246 0zM85.036 5.6h2.291l-1.77-.55-.521.55zm-.764-.509l1.984-1.854a.933.933 0 000-1.384L84.272 0l-1.984 1.854a.933.933 0 000 1.384l1.364 1.275.62-1.967V5.09zm-.765.509L81.84 3.838a.848.848 0 00-1.246 0L78.926 5.6l1.668 1.763a.848.848 0 001.246 0l1.176-1.244-.029.031-1.77-.55h2.29z" fill="#fff"/><path d="M86.704 7.364L85.036 5.6h4.582L87.95 7.364a.847.847 0 01-1.246 0zm-6.11-3.527L78.926 5.6h4.581L81.84 3.837a.848.848 0 00-1.246 0z" fill="#fff"/><path fill-rule="evenodd" clip-rule="evenodd" d="M99.963 8.655l.619-1.967 1.365 1.275a.933.933 0 010 1.384l-1.984 1.854-1.984-1.854a.934.934 0 010-1.384l1.984-1.854v2.546zm2.432-4.818L100.727 5.6l1.668 1.764a.848.848 0 001.246 0l1.668-1.764-1.668-1.763a.848.848 0 00-1.246 0zM100.727 5.6h2.292l-1.771-.55-.521.55zm-.764-.509l1.984-1.854a.932.932 0 000-1.384L99.963 0 97.98 1.854a.933.933 0 000 1.384l1.365 1.275.62-1.967V5.09zM99.2 5.6l-1.668-1.763a.848.848 0 00-1.246 0L94.618 5.6l1.668 1.763a.848.848 0 001.245 0l1.177-1.244-.03.031-1.769-.55h2.29z" fill="#fff"/><path d="M102.395 7.364L100.727 5.6h4.582l-1.668 1.764a.848.848 0 01-1.246 0zm-6.109-3.527L94.618 5.6h4.581l-1.667-1.764a.848.848 0 00-1.246 0z" fill="#fff"/><path fill-rule="evenodd" clip-rule="evenodd" d="M115.655 8.655l.619-1.967 1.365 1.275a.933.933 0 010 1.384l-1.984 1.854-1.984-1.854a.934.934 0 010-1.384l1.984-1.854v2.546zm2.432-4.818L116.419 5.6l1.668 1.764a.848.848 0 001.246 0l1.668-1.764-1.668-1.763a.848.848 0 00-1.246 0zM116.419 5.6h2.292l-1.771-.55-.521.55zm-.764-.509l1.984-1.854a.932.932 0 000-1.384L115.655 0l-1.984 1.854a.934.934 0 000 1.384l1.365 1.275.619-1.967V5.09zm-.764.509l-1.667-1.763a.848.848 0 00-1.246 0L110.31 5.6l1.667 1.763a.848.848 0 001.246 0L114.4 6.12l-.029.031-1.77-.55h2.29z" fill="#fff"/><path d="M118.087 7.364L116.419 5.6h4.582l-1.668 1.764a.848.848 0 01-1.246 0zm-6.109-3.527L110.31 5.6h4.581l-1.667-1.764a.848.848 0 00-1.246 0z" fill="#fff"/></svg>