<svg width="121" height="12" fill="none" xmlns="http://www.w3.org/2000/svg"><path fill-rule="evenodd" clip-rule="evenodd" d="M5.677 8.655l.619-1.967L7.66 7.963a.934.934 0 010 1.384l-1.984 1.854-1.984-1.854a.934.934 0 010-1.384l1.984-1.854v2.546zm2.432-4.818L6.44 5.6l1.67 1.764a.847.847 0 001.245 0L11.023 5.6 9.354 3.837a.847.847 0 00-1.245 0zM6.44 5.6h2.292l-1.77-.55-.522.55zm-.763-.509L7.66 3.237a.933.933 0 000-1.384L5.677 0 3.693 1.854a.933.933 0 000 1.384l1.364 1.275.62-1.967V5.09zm-.765.509L3.245 3.838a.848.848 0 00-1.246 0L.331 5.6l1.668 1.763a.848.848 0 001.246 0L4.42 6.12l-.03.031-1.769-.55h2.29z" fill="#000"/><path d="M8.109 7.364L6.44 5.6h4.583L9.354 7.364a.847.847 0 01-1.245 0zM2 3.837L.33 5.6h4.582L3.245 3.837a.848.848 0 00-1.246 0z" fill="#000"/><path fill-rule="evenodd" clip-rule="evenodd" d="M21.368 8.655l.62-1.967 1.364 1.275a.934.934 0 010 1.384l-1.984 1.854-1.984-1.854a.934.934 0 010-1.384l1.984-1.854v2.546zM23.8 3.837L22.132 5.6 23.8 7.364a.847.847 0 001.246 0L26.714 5.6l-1.668-1.763a.847.847 0 00-1.246 0zM22.132 5.6h2.292l-1.771-.55-.521.55zm-.764-.509l1.984-1.854a.933.933 0 000-1.384L21.368 0l-1.984 1.854a.933.933 0 000 1.384l1.365 1.275.62-1.967V5.09zm-.764.509l-1.667-1.763a.848.848 0 00-1.246 0L16.023 5.6l1.667 1.763a.848.848 0 001.246 0l1.177-1.244-.03.031-1.77-.55h2.29z" fill="#000"/><path d="M23.8 7.364L22.132 5.6h4.582l-1.668 1.764a.847.847 0 01-1.246 0zm-6.11-3.527L16.023 5.6h4.582l-1.667-1.764a.848.848 0 00-1.246 0z" fill="#000"/><path fill-rule="evenodd" clip-rule="evenodd" d="M37.06 8.655l.619-1.967 1.365 1.275a.934.934 0 010 1.384l-1.984 1.854-1.984-1.854a.934.934 0 010-1.384l1.984-1.854v2.546zm2.432-4.818L37.824 5.6l1.668 1.764a.847.847 0 001.246 0L42.406 5.6l-1.668-1.763a.847.847 0 00-1.246 0zM37.824 5.6h2.291l-1.77-.55-.521.55zm-.764-.509l1.984-1.854a.933.933 0 000-1.384L37.06 0l-1.984 1.854a.933.933 0 000 1.384l1.364 1.275.62-1.967V5.09zm-.764.509l-1.668-1.763a.848.848 0 00-1.246 0L31.714 5.6l1.668 1.763a.848.848 0 001.246 0l1.176-1.244-.029.031-1.77-.55h2.29z" fill="#000"/><path d="M39.492 7.364L37.824 5.6h4.582l-1.668 1.764a.847.847 0 01-1.246 0zm-6.11-3.527L31.714 5.6h4.582l-1.668-1.764a.848.848 0 00-1.246 0z" fill="#000"/><path fill-rule="evenodd" clip-rule="evenodd" d="M52.752 8.655l.618-1.967 1.366 1.275a.934.934 0 010 1.384l-1.984 1.854-1.985-1.854a.934.934 0 010-1.384l1.984-1.854v2.546zm2.432-4.818L53.515 5.6l1.669 1.764a.847.847 0 001.245 0L58.097 5.6 56.43 3.837a.847.847 0 00-1.245 0zM53.515 5.6h2.292l-1.77-.55-.522.55zm-.763-.509l1.983-1.854a.933.933 0 000-1.384L52.753 0l-1.985 1.854a.933.933 0 000 1.384l1.365 1.275.62-1.967V5.09zm-.765.509L50.32 3.838a.848.848 0 00-1.246 0L47.406 5.6l1.668 1.763a.848.848 0 001.246 0l1.176-1.244-.03.031-1.769-.55h2.29z" fill="#000"/><path d="M55.184 7.364L53.515 5.6h4.582L56.43 7.364a.847.847 0 01-1.245 0zm-6.11-3.527L47.406 5.6h4.581L50.32 3.837a.848.848 0 00-1.246 0z" fill="#000"/><path fill-rule="evenodd" clip-rule="evenodd" d="M68.443 8.655l.62-1.967 1.364 1.275a.934.934 0 010 1.384l-1.984 1.854-1.984-1.854a.934.934 0 010-1.384l1.984-1.854v2.546zm2.432-4.818L69.207 5.6l1.668 1.764a.847.847 0 001.246 0L73.789 5.6l-1.668-1.763a.847.847 0 00-1.246 0zM69.207 5.6H71.5l-1.77-.55-.522.55zm-.764-.509l1.984-1.854a.933.933 0 000-1.384L68.443 0 66.46 1.854a.933.933 0 000 1.384l1.365 1.275.62-1.967V5.09zm-.764.509l-1.667-1.763a.848.848 0 00-1.246 0L63.097 5.6l1.669 1.763a.848.848 0 001.245 0l1.177-1.244-.03.031-1.769-.55h2.29z" fill="#000"/><path d="M70.875 7.364L69.207 5.6h4.582l-1.668 1.764a.847.847 0 01-1.246 0zm-6.109-3.527L63.097 5.6h4.582l-1.667-1.764a.848.848 0 00-1.246 0z" fill="#000"/><path fill-rule="evenodd" clip-rule="evenodd" d="M84.135 8.655l.619-1.967 1.365 1.275a.934.934 0 010 1.384l-1.984 1.854-1.984-1.854a.934.934 0 010-1.384l1.984-1.854v2.546zm2.432-4.818L84.899 5.6l1.668 1.764a.847.847 0 001.246 0L89.48 5.6l-1.668-1.763a.847.847 0 00-1.246 0zM84.899 5.6h2.291l-1.77-.55-.521.55zm-.764-.509l1.984-1.854a.933.933 0 000-1.384L84.135 0 82.15 1.854a.933.933 0 000 1.384l1.364 1.275.62-1.967V5.09zm-.765.509l-1.667-1.763a.848.848 0 00-1.246 0L78.79 5.6l1.668 1.763a.848.848 0 001.246 0l1.176-1.244-.029.031-1.77-.55h2.29z" fill="#fff"/><path d="M86.567 7.364L84.899 5.6h4.582l-1.668 1.764a.847.847 0 01-1.246 0zm-6.11-3.527L78.79 5.6h4.582l-1.668-1.764a.848.848 0 00-1.246 0z" fill="#fff"/><path fill-rule="evenodd" clip-rule="evenodd" d="M99.827 8.655l.619-1.967 1.365 1.275a.934.934 0 010 1.384l-1.984 1.854-1.984-1.854a.934.934 0 010-1.384l1.984-1.854v2.546zm2.432-4.818L100.59 5.6l1.669 1.764a.846.846 0 001.245 0l1.669-1.764-1.669-1.763a.846.846 0 00-1.245 0zM100.59 5.6h2.292l-1.771-.55-.521.55zm-.764-.509l1.985-1.854a.934.934 0 000-1.384L99.827 0l-1.984 1.854a.933.933 0 000 1.384l1.364 1.275.62-1.967V5.09zm-.764.509l-1.667-1.763a.848.848 0 00-1.246 0L94.481 5.6l1.668 1.763a.848.848 0 001.246 0L98.57 6.12l-.029.031-1.77-.55h2.29z" fill="#fff"/><path d="M102.259 7.364L100.59 5.6h4.583l-1.669 1.764a.846.846 0 01-1.245 0zM96.15 3.837L94.48 5.6h4.582l-1.667-1.764a.848.848 0 00-1.246 0z" fill="#fff"/><path fill-rule="evenodd" clip-rule="evenodd" d="M115.518 8.655l.619-1.967 1.365 1.275a.933.933 0 010 1.384l-1.984 1.854-1.984-1.854a.934.934 0 010-1.384l1.984-1.854v2.546zm2.432-4.818L116.282 5.6l1.668 1.764a.848.848 0 001.246 0l1.668-1.764-1.668-1.763a.848.848 0 00-1.246 0zM116.282 5.6h2.292l-1.771-.55-.521.55zm-.764-.509l1.984-1.854a.932.932 0 000-1.384L115.518 0l-1.984 1.854a.934.934 0 000 1.384l1.365 1.275.619-1.967V5.09zm-.764.509l-1.667-1.763a.848.848 0 00-1.246 0L110.172 5.6l1.668 1.763a.848.848 0 001.246 0l1.177-1.244-.029.031-1.77-.55h2.29z" fill="#fff"/><path d="M117.95 7.364L116.282 5.6h4.582l-1.668 1.764a.848.848 0 01-1.246 0zm-6.109-3.527L110.172 5.6h4.582l-1.667-1.764a.848.848 0 00-1.246 0z" fill="#fff"/></svg>