<svg width="122" height="12" fill="none" xmlns="http://www.w3.org/2000/svg"><path fill-rule="evenodd" clip-rule="evenodd" d="M5.878 8.655l.619-1.967 1.365 1.275a.934.934 0 010 1.384l-1.984 1.854-1.984-1.854a.934.934 0 010-1.384l1.984-1.854v2.546zM8.31 3.837L6.642 5.6 8.31 7.364a.847.847 0 001.246 0L11.224 5.6 9.556 3.837a.847.847 0 00-1.246 0zM6.642 5.6h2.291l-1.77-.55-.521.55zm-.764-.509l1.984-1.854a.933.933 0 000-1.384L5.878 0 3.894 1.854a.933.933 0 000 1.384l1.364 1.275.62-1.967V5.09zm-.764.509L3.446 3.838a.848.848 0 00-1.245 0L.532 5.6 2.2 7.364a.848.848 0 001.246 0L4.622 6.12l-.029.031-1.77-.55h2.29z" fill="#000"/><path d="M8.31 7.364L6.642 5.6h4.582L9.556 7.364a.847.847 0 01-1.246 0zM2.2 3.837L.533 5.6h4.582L3.446 3.837a.848.848 0 00-1.245 0z" fill="#000"/><path fill-rule="evenodd" clip-rule="evenodd" d="M21.57 8.655l.619-1.967 1.365 1.275a.934.934 0 010 1.384l-1.984 1.854-1.984-1.854a.934.934 0 010-1.384l1.984-1.854v2.546zm2.432-4.818L22.333 5.6l1.669 1.764a.847.847 0 001.245 0L26.916 5.6l-1.669-1.763a.847.847 0 00-1.245 0zM22.333 5.6h2.292l-1.77-.55-.522.55zm-.763-.509l1.984-1.854a.933.933 0 000-1.384L21.57 0l-1.984 1.854a.933.933 0 000 1.384l1.364 1.275.62-1.967V5.09zm-.765.509l-1.667-1.763a.848.848 0 00-1.246 0L16.224 5.6l1.668 1.763a.848.848 0 001.246 0l1.176-1.244-.029.031-1.77-.55h2.29z" fill="#fff"/><path d="M24.002 7.364L22.333 5.6h4.583l-1.669 1.764a.847.847 0 01-1.245 0zm-6.11-3.527L16.224 5.6h4.581l-1.667-1.764a.848.848 0 00-1.246 0z" fill="#fff"/><path fill-rule="evenodd" clip-rule="evenodd" d="M37.261 8.655l.62-1.967 1.364 1.275a.934.934 0 010 1.384l-1.984 1.854-1.984-1.854a.934.934 0 010-1.384l1.984-1.854v2.546zm2.432-4.818L38.025 5.6l1.668 1.764a.847.847 0 001.246 0L42.607 5.6 40.94 3.837a.847.847 0 00-1.246 0zM38.025 5.6h2.292l-1.77-.55-.522.55zm-.764-.509l1.984-1.854a.933.933 0 000-1.384L37.261 0l-1.984 1.854a.933.933 0 000 1.384l1.365 1.275.62-1.967V5.09zm-.764.509L34.83 3.838a.848.848 0 00-1.246 0L31.915 5.6l1.668 1.763a.848.848 0 001.246 0l1.177-1.244-.03.031-1.769-.55h2.29z" fill="#fff"/><path d="M39.693 7.364L38.025 5.6h4.582L40.94 7.364a.847.847 0 01-1.246 0zm-6.109-3.527L31.915 5.6h4.582L34.83 3.837a.848.848 0 00-1.246 0z" fill="#fff"/><path fill-rule="evenodd" clip-rule="evenodd" d="M52.953 8.655l.619-1.967 1.365 1.275a.934.934 0 010 1.384l-1.984 1.854-1.984-1.854a.934.934 0 010-1.384l1.984-1.854v2.546zm2.432-4.818L53.717 5.6l1.668 1.764a.847.847 0 001.246 0L58.299 5.6 56.63 3.837a.847.847 0 00-1.246 0zM53.717 5.6h2.291l-1.77-.55-.521.55zm-.764-.509l1.984-1.854a.933.933 0 000-1.384L52.953 0l-1.984 1.854a.933.933 0 000 1.384l1.364 1.275.62-1.967V5.09zm-.764.509L50.52 3.838a.848.848 0 00-1.245 0L47.607 5.6l1.668 1.763a.848.848 0 001.246 0l1.176-1.244-.029.031-1.77-.55h2.29z" fill="#fff"/><path d="M55.385 7.364L53.717 5.6h4.582L56.63 7.364a.847.847 0 01-1.246 0zm-6.109-3.527L47.607 5.6h4.582L50.52 3.837a.848.848 0 00-1.245 0z" fill="#fff"/><path fill-rule="evenodd" clip-rule="evenodd" d="M68.645 8.655l.619-1.967 1.365 1.275a.934.934 0 010 1.384l-1.984 1.854-1.984-1.854a.934.934 0 010-1.384l1.984-1.854v2.546zm2.432-4.818L69.409 5.6l1.668 1.764a.847.847 0 001.245 0L73.991 5.6l-1.669-1.763a.847.847 0 00-1.245 0zM69.409 5.6H71.7l-1.77-.55-.522.55zm-.764-.509l1.984-1.854a.933.933 0 000-1.384L68.645 0 66.66 1.854a.933.933 0 000 1.384l1.364 1.275.62-1.967V5.09zm-.765.509l-1.667-1.763a.848.848 0 00-1.246 0L63.3 5.6l1.668 1.763a.848.848 0 001.246 0l1.176-1.244-.029.031-1.77-.55h2.29z" fill="#fff"/><path d="M71.077 7.364L69.409 5.6h4.582l-1.669 1.764a.847.847 0 01-1.245 0zm-6.11-3.527L63.3 5.6h4.581l-1.667-1.764a.848.848 0 00-1.246 0z" fill="#fff"/><path fill-rule="evenodd" clip-rule="evenodd" d="M84.336 8.655l.62-1.967 1.364 1.275a.934.934 0 010 1.384l-1.984 1.854-1.984-1.854a.934.934 0 010-1.384l1.984-1.854v2.546zm2.432-4.818L85.1 5.6l1.668 1.764a.847.847 0 001.246 0L89.682 5.6l-1.668-1.763a.847.847 0 00-1.246 0zM85.1 5.6h2.292l-1.77-.55-.522.55zm-.764-.509l1.984-1.854a.933.933 0 000-1.384L84.336 0l-1.984 1.854a.933.933 0 000 1.384l1.365 1.275.62-1.967V5.09zm-.764.509l-1.667-1.763a.848.848 0 00-1.246 0L78.99 5.6l1.668 1.763a.848.848 0 001.245 0l1.177-1.244-.03.031-1.769-.55h2.29z" fill="#fff"/><path d="M86.768 7.364L85.1 5.6h4.582l-1.668 1.764a.847.847 0 01-1.246 0zm-6.109-3.527L78.99 5.6h4.581l-1.667-1.764a.848.848 0 00-1.246 0z" fill="#fff"/><path fill-rule="evenodd" clip-rule="evenodd" d="M100.028 8.655l.619-1.967 1.365 1.275a.934.934 0 010 1.384l-1.984 1.854-1.984-1.854a.934.934 0 010-1.384l1.984-1.854v2.546zm2.432-4.818L100.792 5.6l1.668 1.764a.848.848 0 001.246 0l1.668-1.764-1.668-1.763a.848.848 0 00-1.246 0zM100.792 5.6h2.291l-1.77-.55-.521.55zm-.764-.509l1.984-1.854a.934.934 0 000-1.384L100.028 0l-1.984 1.854a.933.933 0 000 1.384l1.365 1.275.619-1.967V5.09zm-.764.509l-1.668-1.763a.848.848 0 00-1.245 0L94.682 5.6l1.668 1.763a.848.848 0 001.246 0l1.176-1.244-.029.031-1.77-.55h2.29z" fill="#fff"/><path d="M102.46 7.364L100.792 5.6h4.582l-1.668 1.764a.848.848 0 01-1.246 0zm-6.11-3.527L94.683 5.6h4.582l-1.668-1.764a.848.848 0 00-1.245 0z" fill="#fff"/><path fill-rule="evenodd" clip-rule="evenodd" d="M115.72 8.655l.619-1.967 1.365 1.275a.934.934 0 010 1.384l-1.984 1.854-1.984-1.854a.933.933 0 010-1.384l1.984-1.854v2.546zm2.432-4.818L116.483 5.6l1.669 1.764a.846.846 0 001.245 0l1.669-1.764-1.669-1.763a.846.846 0 00-1.245 0zM116.483 5.6h2.292l-1.771-.55-.521.55zm-.763-.509l1.984-1.854a.934.934 0 000-1.384L115.72 0l-1.984 1.854a.932.932 0 000 1.384l1.364 1.275.62-1.967V5.09zm-.765.509l-1.667-1.763a.848.848 0 00-1.246 0L110.374 5.6l1.668 1.763a.848.848 0 001.246 0l1.176-1.244-.029.031-1.77-.55h2.29z" fill="#fff"/><path d="M118.152 7.364L116.483 5.6h4.583l-1.669 1.764a.846.846 0 01-1.245 0zm-6.11-3.527L110.374 5.6h4.581l-1.667-1.764a.848.848 0 00-1.246 0z" fill="#fff"/></svg>