<svg width="122" height="12" fill="none" xmlns="http://www.w3.org/2000/svg"><path fill-rule="evenodd" clip-rule="evenodd" d="M5.977 8.655l.62-1.967L7.96 7.963a.934.934 0 010 1.384l-1.984 1.854-1.984-1.854a.934.934 0 010-1.384l1.984-1.854v2.546zM8.41 3.837L6.74 5.6l1.67 1.764a.847.847 0 001.245 0L11.323 5.6 9.655 3.837a.847.847 0 00-1.246 0zM6.74 5.6h2.293l-1.771-.55-.521.55zm-.763-.509l1.984-1.854a.933.933 0 000-1.384L5.977 0 3.993 1.854a.933.933 0 000 1.384l1.365 1.275.62-1.967V5.09zm-.764.509L3.546 3.838a.848.848 0 00-1.246 0L.63 5.6 2.3 7.364a.848.848 0 001.246 0L4.722 6.12l-.03.031-1.77-.55h2.29z" fill="#000"/><path d="M8.41 7.364L6.74 5.6h4.583L9.655 7.364a.847.847 0 01-1.246 0zM2.3 3.837L.63 5.6h4.582L3.546 3.837a.848.848 0 00-1.246 0z" fill="#000"/><path fill-rule="evenodd" clip-rule="evenodd" d="M21.669 8.655l.619-1.967 1.365 1.275a.934.934 0 010 1.384l-1.984 1.854-1.984-1.854a.934.934 0 010-1.384l1.984-1.854v2.546zM24.1 3.837L22.434 5.6 24.1 7.364a.847.847 0 001.245 0l1.67-1.764-1.669-1.763a.847.847 0 00-1.245 0zM22.434 5.6h2.291l-1.77-.55-.521.55zm-.765-.509l1.984-1.854a.933.933 0 000-1.384L21.669 0l-1.984 1.854a.933.933 0 000 1.384l1.364 1.275.62-1.967V5.09zm-.765.509l-1.667-1.763a.848.848 0 00-1.246 0L16.323 5.6l1.668 1.763a.848.848 0 001.246 0l1.176-1.244-.029.031-1.77-.55h2.29z" fill="#000"/><path d="M24.1 7.364L22.434 5.6h4.582l-1.669 1.764a.847.847 0 01-1.245 0zm-6.109-3.527L16.323 5.6h4.581l-1.667-1.764a.848.848 0 00-1.246 0z" fill="#000"/><path fill-rule="evenodd" clip-rule="evenodd" d="M37.36 8.655l.62-1.967 1.364 1.275a.934.934 0 010 1.384l-1.984 1.854-1.984-1.854a.934.934 0 010-1.384l1.984-1.854v2.546zm2.432-4.818L38.124 5.6l1.668 1.764a.847.847 0 001.246 0L42.706 5.6l-1.668-1.763a.847.847 0 00-1.246 0zM38.124 5.6h2.292l-1.77-.55-.522.55zm-.764-.509l1.984-1.854a.933.933 0 000-1.384L37.36 0l-1.984 1.854a.933.933 0 000 1.384l1.365 1.275.62-1.967V5.09zm-.764.509L34.93 3.838a.848.848 0 00-1.246 0L32.015 5.6l1.668 1.763a.848.848 0 001.245 0l1.177-1.244-.03.031-1.769-.55h2.29z" fill="#000"/><path d="M39.792 7.364L38.124 5.6h4.582l-1.668 1.764a.847.847 0 01-1.246 0zm-6.109-3.527L32.015 5.6h4.581L34.93 3.837a.848.848 0 00-1.246 0z" fill="#000"/><path fill-rule="evenodd" clip-rule="evenodd" d="M53.052 8.655l.619-1.967 1.365 1.275a.934.934 0 010 1.384l-1.984 1.854-1.984-1.854a.934.934 0 010-1.384l1.984-1.854v2.546zm2.432-4.818L53.816 5.6l1.668 1.764a.847.847 0 001.246 0L58.398 5.6 56.73 3.837a.847.847 0 00-1.246 0zM53.816 5.6h2.291l-1.77-.55-.521.55zm-.764-.509l1.984-1.854a.933.933 0 000-1.384L53.052 0l-1.984 1.854a.933.933 0 000 1.384l1.364 1.275.62-1.967V5.09zm-.764.509L50.62 3.838a.848.848 0 00-1.246 0L47.706 5.6l1.668 1.763a.848.848 0 001.246 0l1.177-1.244-.03.031-1.77-.55h2.29z" fill="#fff"/><path d="M55.484 7.364L53.816 5.6h4.582L56.73 7.364a.847.847 0 01-1.246 0zm-6.109-3.527L47.706 5.6h4.582L50.62 3.837a.848.848 0 00-1.246 0z" fill="#fff"/><path fill-rule="evenodd" clip-rule="evenodd" d="M68.744 8.655l.619-1.967 1.365 1.275a.934.934 0 010 1.384l-1.984 1.854-1.984-1.854a.934.934 0 010-1.384l1.984-1.854v2.546zm2.432-4.818L69.507 5.6l1.669 1.764a.847.847 0 001.245 0L74.09 5.6l-1.67-1.763a.847.847 0 00-1.245 0zM69.507 5.6H71.8l-1.77-.55-.522.55zm-.763-.509l1.984-1.854a.933.933 0 000-1.384L68.744 0 66.76 1.854a.933.933 0 000 1.384l1.364 1.275.62-1.967V5.09zm-.764.509l-1.668-1.763a.848.848 0 00-1.246 0L63.398 5.6l1.668 1.763a.848.848 0 001.246 0l1.176-1.244-.029.031-1.77-.55h2.29z" fill="#fff"/><path d="M71.176 7.364L69.507 5.6h4.583l-1.67 1.764a.847.847 0 01-1.245 0zm-6.11-3.527L63.398 5.6h4.581l-1.667-1.764a.848.848 0 00-1.246 0z" fill="#fff"/><path fill-rule="evenodd" clip-rule="evenodd" d="M84.435 8.655l.62-1.967 1.364 1.275a.934.934 0 010 1.384l-1.984 1.854-1.984-1.854a.934.934 0 010-1.384l1.984-1.854v2.546zm2.432-4.818L85.2 5.6l1.668 1.764a.847.847 0 001.246 0L89.781 5.6l-1.668-1.763a.847.847 0 00-1.246 0zM85.2 5.6h2.292l-1.77-.55-.522.55zm-.765-.509l1.984-1.854a.933.933 0 000-1.384L84.435 0l-1.984 1.854a.933.933 0 000 1.384l1.365 1.275.62-1.967V5.09zm-.764.509l-1.667-1.763a.848.848 0 00-1.246 0L79.09 5.6l1.667 1.763a.848.848 0 001.246 0L83.18 6.12l-.03.031-1.769-.55h2.29z" fill="#fff"/><path d="M86.867 7.364L85.2 5.6h4.582l-1.668 1.764a.847.847 0 01-1.246 0zm-6.109-3.527L79.09 5.6h4.581l-1.667-1.764a.848.848 0 00-1.246 0z" fill="#fff"/><path fill-rule="evenodd" clip-rule="evenodd" d="M100.127 8.655l.619-1.967 1.365 1.275a.934.934 0 010 1.384l-1.984 1.854-1.984-1.854a.934.934 0 010-1.384l1.984-1.854v2.546zm2.432-4.818L100.891 5.6l1.668 1.764a.848.848 0 001.246 0l1.668-1.764-1.668-1.763a.848.848 0 00-1.246 0zM100.891 5.6h2.291l-1.77-.55-.521.55zm-.764-.509l1.984-1.854a.934.934 0 000-1.384L100.127 0l-1.984 1.854a.933.933 0 000 1.384l1.364 1.275.62-1.967V5.09zm-.764.509l-1.668-1.763a.848.848 0 00-1.245 0L94.78 5.6l1.668 1.763a.848.848 0 001.246 0l1.177-1.244-.03.031-1.77-.55h2.29z" fill="#fff"/><path d="M102.559 7.364L100.891 5.6h4.582l-1.668 1.764a.848.848 0 01-1.246 0zM96.45 3.837L94.78 5.6h4.582l-1.668-1.764a.848.848 0 00-1.245 0z" fill="#fff"/><path fill-rule="evenodd" clip-rule="evenodd" d="M115.819 8.655l.619-1.967 1.365 1.275a.934.934 0 010 1.384l-1.984 1.854-1.984-1.854a.933.933 0 010-1.384l1.984-1.854v2.546zm2.432-4.818L116.583 5.6l1.668 1.764a.848.848 0 001.246 0l1.668-1.764-1.668-1.763a.848.848 0 00-1.246 0zM116.583 5.6h2.291l-1.77-.55-.521.55zm-.764-.509l1.984-1.854a.934.934 0 000-1.384L115.819 0l-1.984 1.854a.932.932 0 000 1.384l1.364 1.275.62-1.967V5.09zm-.764.509l-1.668-1.763a.848.848 0 00-1.246 0L110.473 5.6l1.668 1.763a.848.848 0 001.246 0l1.176-1.244-.029.031-1.769-.55h2.29z" fill="#fff"/><path d="M118.251 7.364L116.583 5.6h4.582l-1.668 1.764a.848.848 0 01-1.246 0zm-6.11-3.527L110.473 5.6h4.582l-1.668-1.764a.848.848 0 00-1.246 0z" fill="#fff"/></svg>