<svg width="264" height="134" fill="none" xmlns="http://www.w3.org/2000/svg"><path fill-rule="evenodd" clip-rule="evenodd" d="M66.436 103.166l6.949-23.761 15.323 15.402c4.595 4.62 4.595 12.099 0 16.719l-22.272 22.387-22.27-22.387c-4.596-4.62-4.596-12.1 0-16.719l22.27-22.387v30.746zm5.242-36.023l22.27 22.387a11.713 11.713 0 0016.633 0l22.271-22.387-22.271-22.387a11.713 11.713 0 00-16.632 0L78.633 60.151l23.639 6.992H71.678zM59.483 54.876L44.165 39.479c-4.595-4.62-4.595-12.099 0-16.718L66.436.366l22.272 22.387c4.595 4.62 4.595 12.1 0 16.719L66.436 61.859v.007V31.12l-6.953 23.756zm1.697 12.267l.003-.003.005-.005-22.273-22.39c-4.59-4.614-12.046-4.614-16.637 0L0 67.14l22.273 22.389c4.59 4.614 12.046 4.614 16.637 0l16.638-16.725-1.318 1.323-23.63-6.983h30.58z" fill="#fff"/><path d="M44.157 111.525l22.272 22.387v-61.5L44.157 94.8c-4.595 4.62-4.595 12.099 0 16.718v.007zm44.55-72.046L66.436 61.866V.366l22.27 22.387c4.596 4.62 4.596 12.1 0 16.719v.007zm5.25 50.051L71.686 67.143h61.181L110.596 89.53a11.713 11.713 0 01-16.632 0h-.007zM22.275 44.749L.004 67.143h61.181l-22.27-22.387a11.713 11.713 0 00-16.633 0l-.007-.007zm79.776-20.737L97.3 30.544c-.435.6-.01 1.442.728 1.442h9.503c.738 0 1.163-.842.729-1.442l-4.752-6.532a.9.9 0 00-1.457 0zm-71.624 85.74l4.752-6.533c.435-.599.01-1.441-.728-1.441h-9.503c-.738 0-1.163.842-.729 1.441l4.752 6.533a.899.899 0 001.456 0z" fill="#fff"/><path fill-rule="evenodd" clip-rule="evenodd" d="M32.45 26.314l-1.566-2.154a.899.899 0 00-1.457 0l-1.567 2.154h4.59zm-5.71 1.54h6.83l2.065 2.838c.435.6.01 1.442-.728 1.442h-9.503c-.738 0-1.163-.842-.728-1.442l2.064-2.838zm78.563 80.118l-1.566 2.153a.9.9 0 01-1.457 0l-1.566-2.153h4.589zm1.12-1.54h-6.83l-2.064-2.839c-.435-.6-.01-1.442.728-1.442h9.503c.738 0 1.163.842.728 1.442l-2.065 2.839z" fill="#fff"/><path d="M140.166 48.806l.927-1.175c2.257 2.166 4.485 3.053 6.882 3.053 2.683 0 4.058-1.101 4.058-2.801 0-4.753-13.021-1.065-13.021-11.109 0-4.79 3.808-8.196 9.816-8.196 1.83 0 3.411.31 4.771.827 2.294.872 3.074 3.74 1.581 5.699l-.735.968c-1.551-1.419-3.213-2.306-5.61-2.306-2.75 0-4.162 1.168-4.162 2.838 0 4.509 13.059 1.597 13.059 10.784 0 5.218-3.883 8.477-9.816 8.477-2.64 0-4.75-.584-6.471-1.449-2.095-1.05-2.713-3.762-1.264-5.61h-.015zm20.721-6.533c0-9.298 7.021-13.732 13.448-13.732 6.426 0 13.624 4.434 13.624 13.732 0 9.298-7.169 13.621-13.624 13.621-6.456 0-13.448-4.538-13.448-13.621zm21.249 0c0-5.75-4.022-8.27-7.801-8.27-3.78 0-7.625 2.52-7.625 8.27s3.809 8.122 7.625 8.122 7.801-2.586 7.801-8.122zm36.563 13.06h-2.441a3.686 3.686 0 01-3.632-3.112l-1.486-9.342-4.521 8.603c-.89 1.685-3.294 1.685-4.177-.007l-4.507-8.67-1.515 9.416a3.68 3.68 0 01-3.632 3.104h-2.448l4.801-26.68h.779l8.61 17.493 8.647-17.494h.78l4.727 26.681.015.008zm9.81-5.115h7.404c2.029 0 3.676 1.656 3.676 3.696v1.411h-16.624V29.11h16.234v1.375c0 2.04-1.646 3.695-3.676 3.695h-7.022v5.107h10.169v4.967h-10.169v5.957l.008.007zm-72.896 34.575l-.897-2.21h-8.999l-.927 2.232a3.679 3.679 0 01-3.389 2.269h-3.589l12.11-26.681h.743l12.073 26.68h-3.713a3.68 3.68 0 01-3.404-2.298l-.008.008zm-2.485-6.785l-2.963-7.206-2.926 7.206h5.896-.007zm33.139 9.076h-4.75a3.66 3.66 0 01-3.073-1.67l-6.78-10.429v12.099h-5.646v-22.52c0-2.04 1.647-3.695 3.676-3.695h5.926c6.176 0 10.059 2.586 10.059 8.159 0 4.006-2.471 6.74-6.809 7.627l7.411 10.429h-.014zm-14.61-14.124h2.684c3.808 0 5.507-1.101 5.507-3.585 0-2.343-1.449-3.51-4.801-3.51h-3.39v7.095zm23.639 10.428v-17.45h-3.559c-2.029 0-3.676-1.655-3.676-3.695v-1.375h16.44c2.029 0 3.676 1.656 3.676 3.696v1.375h-7.235v21.145h-1.97c-2.029 0-3.676-1.656-3.676-3.696zm25.614-.166v-22.52h1.934c2.029 0 3.676 1.655 3.676 3.695v22.52h-1.934c-2.029 0-3.676-1.655-3.676-3.695zm26.86-22.52h2.007c2.029 0 3.676 1.655 3.676 3.695v22.949h-.779l-14.404-14.76v14.331h-1.934c-2.029 0-3.676-1.655-3.676-3.695V60.236h.78l14.33 14.723V60.694v.008zM210.2 79.143l-4.752 6.533c-.434.6-.009 1.442.728 1.442h9.504c.738 0 1.163-.843.728-1.442l-4.752-6.533a.899.899 0 00-1.456 0zm39.101-31.865l-4.751 6.532c-.435.6-.01 1.442.728 1.442h9.503c.738 0 1.163-.842.729-1.442l-4.752-6.532a.9.9 0 00-1.457 0zm-54.25 52.632v3.039h3.08a2.604 2.604 0 012.604 2.604h-8.526V92.189h8.327a2.586 2.586 0 01-2.586 2.586h-2.899v2.604h5.213v2.532h-5.213zm-10.273 5.985c-1.161 0-2.123-.22-2.931-.561-1.431-.605-1.528-2.453-.57-3.677 1.161 1.114 2.304 1.571 3.537 1.571 1.379 0 2.086-.566 2.086-1.443 0-2.448-6.693-.548-6.693-5.718 0-2.467 1.959-4.22 5.043-4.22.852 0 1.597.13 2.248.351 1.439.49 1.557 2.294.636 3.503-.798-.73-1.651-1.187-2.884-1.187-1.415 0-2.141.603-2.141 1.461 0 2.32 6.712.822 6.712 5.554 0 2.686-1.995 4.366-5.043 4.366zm-12.246 0c-3.018 0-5.389-1.817-5.389-5.708v-7.998a2.856 2.856 0 012.856 2.857v4.869c0 2.236.97 3.199 2.515 3.199 1.599 0 2.515-1.036 2.515-3.2V92.19a2.856 2.856 0 012.856 2.857v5.141c0 3.563-2.048 5.708-5.353 5.708zm-14.643 0c-3.318 0-6.946-2.332-6.946-6.997 0-4.774 3.628-7.052 6.946-7.052 3.3 0 7.037 2.278 7.037 7.052 0 4.665-3.701 6.997-7.037 6.997zm0-2.824c1.951 0 4.029-1.33 4.029-4.173 0-2.952-2.078-4.245-4.029-4.245-1.969 0-3.938 1.293-3.938 4.245 0 2.843 1.969 4.173 3.938 4.173zm-12.06-5.764v-5.118c1.6 0 2.897 1.297 2.897 2.897v10.467h-2.897v-5.642h-5.12v5.642a2.897 2.897 0 01-2.897-2.897V92.189h2.897v5.118h5.12z" fill="#fff"/></svg>