<svg width="32" height="30" fill="none" xmlns="http://www.w3.org/2000/svg"><rect width="32" height="30" rx="15" fill="#6F3FAA"/><path d="M17.546 7.75h-3.092c-2.976 0-5.411 2.283-5.411 5.073v2.174c0 1.957 1.218 3.75 3.092 4.584v2.427c0 .218.29.326.444.164l2.242-2.102h2.725c2.976 0 5.411-2.283 5.411-5.073v-2.174c0-2.79-2.435-5.073-5.41-5.073zm2.03 9.512l-.793.724c-.831.761-2.976-.108-4.87-1.92-1.894-1.812-2.725-3.841-1.933-4.602l.773-.725c.29-.271.773-.253 1.102.018l1.12 1.088a.692.692 0 01-.289 1.177c-.367.109-.618.49-.502.834.193.797 1.275 1.811 2.087 2.01.367.073.773-.108.908-.452.174-.49.87-.634 1.256-.254l1.12 1.087c.31.254.31.707.02 1.015zm-2.88-6.07c-.078 0-.155 0-.232.018a.27.27 0 01-.29-.217c-.02-.127.097-.254.232-.272.097-.018.193-.018.29-.018 1.41 0 2.57 1.087 2.57 2.41 0 .09 0 .18-.02.271a.27.27 0 01-.29.218c-.134-.018-.25-.145-.231-.272 0-.072.02-.145.02-.217.019-1.051-.909-1.92-2.05-1.92zm1.546 1.939c0 .127-.116.235-.251.235-.136 0-.252-.108-.252-.235 0-.526-.463-.96-1.024-.96-.135 0-.251-.109-.251-.236s.116-.235.251-.235c.831-.018 1.527.634 1.527 1.43zm1.971.779a.273.273 0 01-.329.181c-.135-.036-.212-.163-.174-.29.058-.217.078-.435.078-.67 0-1.595-1.392-2.899-3.092-2.899h-.232c-.135 0-.27-.09-.27-.217s.096-.254.231-.254c.097 0 .194-.018.27-.018 1.991 0 3.615 1.522 3.615 3.388 0 .253-.039.525-.097.779z" fill="#fff"/></svg>