<svg width="32" height="30" fill="none" xmlns="http://www.w3.org/2000/svg"><g id="social"><rect width="32" height="30" rx="15" fill="#29A71A"/><path id="Vector" d="M16.002 6.75h-.004c-4.264 0-7.731 3.252-7.731 7.25a6.9 6.9 0 001.472 4.25l-.964 2.693 2.973-.891a8.035 8.035 0 004.254 1.198c4.264 0 7.731-3.253 7.731-7.25 0-3.998-3.467-7.25-7.731-7.25zm4.5 10.238c-.187.494-.927.903-1.518 1.023-.404.08-.932.145-2.709-.546-2.272-.882-3.736-3.047-3.85-3.188-.109-.14-.918-1.146-.918-2.186s.563-1.547.79-1.765c.187-.178.495-.26.791-.26.096 0 .182.004.26.008.227.01.34.022.49.358.187.421.641 1.462.696 1.569.055.107.11.252.032.392-.072.145-.136.21-.25.333-.114.123-.222.217-.336.35-.105.115-.223.238-.091.45.131.21.586.905 1.255 1.463.863.72 1.563.95 1.813 1.048.186.073.409.056.545-.08.173-.175.387-.465.604-.75.155-.206.35-.231.555-.159.209.069 1.314.58 1.541.687.227.107.377.157.432.247.054.09.054.511-.132 1.006z" fill="#fff"/></g></svg>