<svg width="54" height="53" fill="none" xmlns="http://www.w3.org/2000/svg"><path d="M27.005 7.067h-.01C16.28 7.067 7.566 15.783 7.566 26.5a19.29 19.29 0 003.7 11.39l-2.422 7.22 7.47-2.388a19.266 19.266 0 0010.69 3.211c10.716 0 19.43-8.718 19.43-19.433S37.72 7.067 27.003 7.067zm11.307 27.442c-.468 1.324-2.33 2.422-3.813 2.742-1.016.217-2.342.39-6.807-1.462-5.71-2.366-9.389-8.17-9.675-8.546-.275-.376-2.308-3.073-2.308-5.861 0-2.789 1.416-4.147 1.987-4.73.469-.478 1.244-.697 1.987-.697.24 0 .457.012.651.022.571.024.858.058 1.234.96.469 1.129 1.61 3.918 1.747 4.204.138.287.277.676.082 1.052-.182.389-.342.561-.629.892-.287.33-.559.583-.845.937-.263.309-.559.64-.229 1.21.33.559 1.473 2.422 3.154 3.918 2.169 1.931 3.928 2.548 4.557 2.81.468.195 1.027.149 1.37-.215.434-.47.971-1.247 1.518-2.012.389-.549.88-.617 1.394-.422.525.182 3.302 1.554 3.872 1.838.571.287.948.423 1.086.664.136.24.136 1.37-.333 2.696z" fill="#fff"/></svg>